<svg width="128" height="43" viewBox="0 0 128 43" fill="none" xmlns="http://www.w3.org/2000/svg">
<path d="M22.6804 1.43994C19.24 1.43994 16.4404 4.23953 16.4404 7.67994V16.3199C16.4404 19.7603 19.24 22.5599 22.6804 22.5599H31.3204C34.7608 22.5599 37.5604 19.7603 37.5604 16.3199V7.67994C37.5604 4.23953 34.7608 1.43994 31.3204 1.43994H22.6804ZM22.6804 2.39994H31.3204C34.2419 2.39994 36.6004 4.75843 36.6004 7.67994V16.3199C36.6004 19.2415 34.2419 21.5999 31.3204 21.5999H22.6804C19.7589 21.5999 17.4004 19.2415 17.4004 16.3199V7.67994C17.4004 4.75843 19.7589 2.39994 22.6804 2.39994ZM32.7604 5.27994C32.5058 5.27994 32.2616 5.38108 32.0816 5.56112C31.9016 5.74115 31.8004 5.98533 31.8004 6.23994C31.8004 6.49455 31.9016 6.73873 32.0816 6.91876C32.2616 7.0988 32.5058 7.19994 32.7604 7.19994C33.015 7.19994 33.2592 7.0988 33.4393 6.91876C33.6193 6.73873 33.7204 6.49455 33.7204 6.23994C33.7204 5.98533 33.6193 5.74115 33.4393 5.56112C33.2592 5.38108 33.015 5.27994 32.7604 5.27994ZM27.0004 6.71994C24.0901 6.71994 21.7204 9.08956 21.7204 11.9999C21.7204 14.9103 24.0901 17.2799 27.0004 17.2799C29.9108 17.2799 32.2804 14.9103 32.2804 11.9999C32.2804 9.08956 29.9108 6.71994 27.0004 6.71994ZM27.0004 7.67994C29.392 7.67994 31.3204 9.60839 31.3204 11.9999C31.3204 14.3915 29.392 16.3199 27.0004 16.3199C24.6089 16.3199 22.6804 14.3915 22.6804 11.9999C22.6804 9.60839 24.6089 7.67994 27.0004 7.67994Z" fill="black"/>
<path d="M0.91 34.7H1.87V40H0.91V34.7ZM1.39 33.68C1.20333 33.68 1.04667 33.62 0.92 33.5C0.8 33.38 0.74 33.2333 0.74 33.06C0.74 32.8867 0.8 32.74 0.92 32.62C1.04667 32.4933 1.20333 32.43 1.39 32.43C1.57667 32.43 1.73 32.49 1.85 32.61C1.97667 32.7233 2.04 32.8667 2.04 33.04C2.04 33.22 1.97667 33.3733 1.85 33.5C1.73 33.62 1.57667 33.68 1.39 33.68ZM6.53297 34.65C7.2063 34.65 7.73964 34.8467 8.13297 35.24C8.53297 35.6267 8.73297 36.1967 8.73297 36.95V40H7.77297V37.06C7.77297 36.5467 7.64964 36.16 7.40297 35.9C7.1563 35.64 6.80297 35.51 6.34297 35.51C5.82297 35.51 5.41297 35.6633 5.11297 35.97C4.81297 36.27 4.66297 36.7033 4.66297 37.27V40H3.70297V34.7H4.62297V35.5C4.8163 35.2267 5.0763 35.0167 5.40297 34.87C5.7363 34.7233 6.11297 34.65 6.53297 34.65ZM12.0296 40.06C11.5963 40.06 11.1796 40.0033 10.7796 39.89C10.3796 39.77 10.0663 39.62 9.83961 39.44L10.2396 38.68C10.4729 38.8467 10.7563 38.98 11.0896 39.08C11.4229 39.18 11.7596 39.23 12.0996 39.23C12.9396 39.23 13.3596 38.99 13.3596 38.51C13.3596 38.35 13.3029 38.2233 13.1896 38.13C13.0763 38.0367 12.9329 37.97 12.7596 37.93C12.5929 37.8833 12.3529 37.8333 12.0396 37.78C11.6129 37.7133 11.2629 37.6367 10.9896 37.55C10.7229 37.4633 10.4929 37.3167 10.2996 37.11C10.1063 36.9033 10.0096 36.6133 10.0096 36.24C10.0096 35.76 10.2096 35.3767 10.6096 35.09C11.0096 34.7967 11.5463 34.65 12.2196 34.65C12.5729 34.65 12.9263 34.6933 13.2796 34.78C13.6329 34.8667 13.9229 34.9833 14.1496 35.13L13.7396 35.89C13.3063 35.61 12.7963 35.47 12.2096 35.47C11.8029 35.47 11.4929 35.5367 11.2796 35.67C11.0663 35.8033 10.9596 35.98 10.9596 36.2C10.9596 36.3733 11.0196 36.51 11.1396 36.61C11.2596 36.71 11.4063 36.7833 11.5796 36.83C11.7596 36.8767 12.0096 36.93 12.3296 36.99C12.7563 37.0633 13.0996 37.1433 13.3596 37.23C13.6263 37.31 13.8529 37.45 14.0396 37.65C14.2263 37.85 14.3196 38.13 14.3196 38.49C14.3196 38.97 14.1129 39.3533 13.6996 39.64C13.2929 39.92 12.7363 40.06 12.0296 40.06ZM18.4994 39.69C18.3594 39.81 18.186 39.9033 17.9794 39.97C17.7727 40.03 17.5594 40.06 17.3394 40.06C16.806 40.06 16.3927 39.9167 16.0994 39.63C15.806 39.3433 15.6594 38.9333 15.6594 38.4V35.49H14.7594V34.7H15.6594V33.54H16.6194V34.7H18.1394V35.49H16.6194V38.36C16.6194 38.6467 16.6894 38.8667 16.8294 39.02C16.976 39.1733 17.1827 39.25 17.4494 39.25C17.7427 39.25 17.9927 39.1667 18.1994 39L18.4994 39.69ZM21.59 34.65C22.3233 34.65 22.8833 34.83 23.27 35.19C23.6633 35.55 23.86 36.0867 23.86 36.8V40H22.95V39.3C22.79 39.5467 22.56 39.7367 22.26 39.87C21.9667 39.9967 21.6167 40.06 21.21 40.06C20.6167 40.06 20.14 39.9167 19.78 39.63C19.4267 39.3433 19.25 38.9667 19.25 38.5C19.25 38.0333 19.42 37.66 19.76 37.38C20.1 37.0933 20.64 36.95 21.38 36.95H22.9V36.76C22.9 36.3467 22.78 36.03 22.54 35.81C22.3 35.59 21.9467 35.48 21.48 35.48C21.1667 35.48 20.86 35.5333 20.56 35.64C20.26 35.74 20.0067 35.8767 19.8 36.05L19.4 35.33C19.6733 35.11 20 34.9433 20.38 34.83C20.76 34.71 21.1633 34.65 21.59 34.65ZM21.37 39.32C21.7367 39.32 22.0533 39.24 22.32 39.08C22.5867 38.9133 22.78 38.68 22.9 38.38V37.64H21.42C20.6067 37.64 20.2 37.9133 20.2 38.46C20.2 38.7267 20.3033 38.9367 20.51 39.09C20.7167 39.2433 21.0033 39.32 21.37 39.32ZM30.7359 34.7V39.28C30.7359 40.2067 30.5059 40.89 30.0459 41.33C29.5859 41.7767 28.8992 42 27.9859 42C27.4859 42 27.0092 41.93 26.5559 41.79C26.1025 41.6567 25.7359 41.4633 25.4559 41.21L25.9159 40.47C26.1625 40.6833 26.4659 40.85 26.8259 40.97C27.1925 41.0967 27.5692 41.16 27.9559 41.16C28.5759 41.16 29.0325 41.0133 29.3259 40.72C29.6259 40.4267 29.7759 39.98 29.7759 39.38V38.96C29.5492 39.2333 29.2692 39.44 28.9359 39.58C28.6092 39.7133 28.2525 39.78 27.8659 39.78C27.3592 39.78 26.8992 39.6733 26.4859 39.46C26.0792 39.24 25.7592 38.9367 25.5259 38.55C25.2925 38.1567 25.1759 37.71 25.1759 37.21C25.1759 36.71 25.2925 36.2667 25.5259 35.88C25.7592 35.4867 26.0792 35.1833 26.4859 34.97C26.8992 34.7567 27.3592 34.65 27.8659 34.65C28.2659 34.65 28.6359 34.7233 28.9759 34.87C29.3225 35.0167 29.6059 35.2333 29.8259 35.52V34.7H30.7359ZM27.9759 38.94C28.3225 38.94 28.6325 38.8667 28.9059 38.72C29.1859 38.5733 29.4025 38.37 29.5559 38.11C29.7159 37.8433 29.7959 37.5433 29.7959 37.21C29.7959 36.6967 29.6259 36.2833 29.2859 35.97C28.9459 35.65 28.5092 35.49 27.9759 35.49C27.4359 35.49 26.9959 35.65 26.6559 35.97C26.3159 36.2833 26.1459 36.6967 26.1459 37.21C26.1459 37.5433 26.2225 37.8433 26.3759 38.11C26.5359 38.37 26.7525 38.5733 27.0259 38.72C27.3059 38.8667 27.6225 38.94 27.9759 38.94ZM33.4902 35.59C33.6568 35.2833 33.9035 35.05 34.2302 34.89C34.5568 34.73 34.9535 34.65 35.4202 34.65V35.58C35.3668 35.5733 35.2935 35.57 35.2002 35.57C34.6802 35.57 34.2702 35.7267 33.9702 36.04C33.6768 36.3467 33.5302 36.7867 33.5302 37.36V40H32.5702V34.7H33.4902V35.59ZM38.5236 34.65C39.2569 34.65 39.8169 34.83 40.2036 35.19C40.5969 35.55 40.7936 36.0867 40.7936 36.8V40H39.8836V39.3C39.7236 39.5467 39.4936 39.7367 39.1936 39.87C38.9003 39.9967 38.5503 40.06 38.1436 40.06C37.5503 40.06 37.0736 39.9167 36.7136 39.63C36.3603 39.3433 36.1836 38.9667 36.1836 38.5C36.1836 38.0333 36.3536 37.66 36.6936 37.38C37.0336 37.0933 37.5736 36.95 38.3136 36.95H39.8336V36.76C39.8336 36.3467 39.7136 36.03 39.4736 35.81C39.2336 35.59 38.8803 35.48 38.4136 35.48C38.1003 35.48 37.7936 35.5333 37.4936 35.64C37.1936 35.74 36.9403 35.8767 36.7336 36.05L36.3336 35.33C36.6069 35.11 36.9336 34.9433 37.3136 34.83C37.6936 34.71 38.0969 34.65 38.5236 34.65ZM38.3036 39.32C38.6703 39.32 38.9869 39.24 39.2536 39.08C39.5203 38.9133 39.7136 38.68 39.8336 38.38V37.64H38.3536C37.5403 37.64 37.1336 37.9133 37.1336 38.46C37.1336 38.7267 37.2369 38.9367 37.4436 39.09C37.6503 39.2433 37.9369 39.32 38.3036 39.32ZM49.2002 34.65C49.8668 34.65 50.3935 34.8433 50.7802 35.23C51.1735 35.6167 51.3702 36.19 51.3702 36.95V40H50.4102V37.06C50.4102 36.5467 50.2902 36.16 50.0502 35.9C49.8168 35.64 49.4802 35.51 49.0402 35.51C48.5535 35.51 48.1668 35.6633 47.8802 35.97C47.5935 36.27 47.4502 36.7033 47.4502 37.27V40H46.4902V37.06C46.4902 36.5467 46.3702 36.16 46.1302 35.9C45.8968 35.64 45.5602 35.51 45.1202 35.51C44.6335 35.51 44.2468 35.6633 43.9602 35.97C43.6735 36.27 43.5302 36.7033 43.5302 37.27V40H42.5702V34.7H43.4902V35.49C43.6835 35.2167 43.9368 35.01 44.2502 34.87C44.5635 34.7233 44.9202 34.65 45.3202 34.65C45.7335 34.65 46.1002 34.7333 46.4202 34.9C46.7402 35.0667 46.9868 35.31 47.1602 35.63C47.3602 35.3233 47.6368 35.0833 47.9902 34.91C48.3502 34.7367 48.7535 34.65 49.2002 34.65Z" fill="black"/>
<path d="M83.94 33L81.6 40H80.55L78.64 34.41L76.73 40H75.66L73.32 33H74.35L76.24 38.69L78.21 33H79.13L81.06 38.72L82.99 33H83.94ZM87.9998 34.65C88.6731 34.65 89.2064 34.8467 89.5998 35.24C89.9998 35.6267 90.1998 36.1967 90.1998 36.95V40H89.2398V37.06C89.2398 36.5467 89.1164 36.16 88.8698 35.9C88.6231 35.64 88.2698 35.51 87.8098 35.51C87.2898 35.51 86.8798 35.6633 86.5798 35.97C86.2798 36.27 86.1298 36.7033 86.1298 37.27V40H85.1698V32.58H86.1298V35.45C86.3298 35.1967 86.5898 35 86.9098 34.86C87.2364 34.72 87.5998 34.65 87.9998 34.65ZM93.9064 34.65C94.6397 34.65 95.1997 34.83 95.5864 35.19C95.9797 35.55 96.1764 36.0867 96.1764 36.8V40H95.2664V39.3C95.1064 39.5467 94.8764 39.7367 94.5764 39.87C94.2831 39.9967 93.9331 40.06 93.5264 40.06C92.9331 40.06 92.4564 39.9167 92.0964 39.63C91.7431 39.3433 91.5664 38.9667 91.5664 38.5C91.5664 38.0333 91.7364 37.66 92.0764 37.38C92.4164 37.0933 92.9564 36.95 93.6964 36.95H95.2164V36.76C95.2164 36.3467 95.0964 36.03 94.8564 35.81C94.6164 35.59 94.2631 35.48 93.7964 35.48C93.4831 35.48 93.1764 35.5333 92.8764 35.64C92.5764 35.74 92.3231 35.8767 92.1164 36.05L91.7164 35.33C91.9897 35.11 92.3164 34.9433 92.6964 34.83C93.0764 34.71 93.4797 34.65 93.9064 34.65ZM93.6864 39.32C94.0531 39.32 94.3697 39.24 94.6364 39.08C94.9031 38.9133 95.0964 38.68 95.2164 38.38V37.64H93.7364C92.9231 37.64 92.5164 37.9133 92.5164 38.46C92.5164 38.7267 92.6197 38.9367 92.8264 39.09C93.0331 39.2433 93.3197 39.32 93.6864 39.32ZM100.933 39.69C100.793 39.81 100.62 39.9033 100.413 39.97C100.206 40.03 99.993 40.06 99.773 40.06C99.2396 40.06 98.8263 39.9167 98.533 39.63C98.2396 39.3433 98.093 38.9333 98.093 38.4V35.49H97.193V34.7H98.093V33.54H99.053V34.7H100.573V35.49H99.053V38.36C99.053 38.6467 99.123 38.8667 99.263 39.02C99.4096 39.1733 99.6163 39.25 99.883 39.25C100.176 39.25 100.426 39.1667 100.633 39L100.933 39.69ZM103.614 40.06C103.18 40.06 102.764 40.0033 102.364 39.89C101.964 39.77 101.65 39.62 101.424 39.44L101.824 38.68C102.057 38.8467 102.34 38.98 102.674 39.08C103.007 39.18 103.344 39.23 103.684 39.23C104.524 39.23 104.944 38.99 104.944 38.51C104.944 38.35 104.887 38.2233 104.774 38.13C104.66 38.0367 104.517 37.97 104.344 37.93C104.177 37.8833 103.937 37.8333 103.624 37.78C103.197 37.7133 102.847 37.6367 102.574 37.55C102.307 37.4633 102.077 37.3167 101.884 37.11C101.69 36.9033 101.594 36.6133 101.594 36.24C101.594 35.76 101.794 35.3767 102.194 35.09C102.594 34.7967 103.13 34.65 103.804 34.65C104.157 34.65 104.51 34.6933 104.864 34.78C105.217 34.8667 105.507 34.9833 105.734 35.13L105.324 35.89C104.89 35.61 104.38 35.47 103.794 35.47C103.387 35.47 103.077 35.5367 102.864 35.67C102.65 35.8033 102.544 35.98 102.544 36.2C102.544 36.3733 102.604 36.51 102.724 36.61C102.844 36.71 102.99 36.7833 103.164 36.83C103.344 36.8767 103.594 36.93 103.914 36.99C104.34 37.0633 104.684 37.1433 104.944 37.23C105.21 37.31 105.437 37.45 105.624 37.65C105.81 37.85 105.904 38.13 105.904 38.49C105.904 38.97 105.697 39.3533 105.284 39.64C104.877 39.92 104.32 40.06 103.614 40.06ZM111.703 38.25H107.983L107.213 40H106.183L109.353 33H110.343L113.523 40H112.473L111.703 38.25ZM111.353 37.45L109.843 34.02L108.333 37.45H111.353ZM117.238 34.65C117.751 34.65 118.211 34.7633 118.618 34.99C119.024 35.2167 119.341 35.5333 119.568 35.94C119.801 36.3467 119.918 36.8167 119.918 37.35C119.918 37.8833 119.801 38.3567 119.568 38.77C119.341 39.1767 119.024 39.4933 118.618 39.72C118.211 39.9467 117.751 40.06 117.238 40.06C116.858 40.06 116.508 39.9867 116.188 39.84C115.874 39.6933 115.608 39.48 115.388 39.2V41.94H114.428V34.7H115.348V35.54C115.561 35.2467 115.831 35.0267 116.158 34.88C116.484 34.7267 116.844 34.65 117.238 34.65ZM117.158 39.22C117.498 39.22 117.801 39.1433 118.068 38.99C118.341 38.83 118.554 38.61 118.708 38.33C118.868 38.0433 118.948 37.7167 118.948 37.35C118.948 36.9833 118.868 36.66 118.708 36.38C118.554 36.0933 118.341 35.8733 118.068 35.72C117.801 35.5667 117.498 35.49 117.158 35.49C116.824 35.49 116.521 35.57 116.248 35.73C115.981 35.8833 115.768 36.1 115.608 36.38C115.454 36.66 115.378 36.9833 115.378 37.35C115.378 37.7167 115.454 38.0433 115.608 38.33C115.761 38.61 115.974 38.83 116.248 38.99C116.521 39.1433 116.824 39.22 117.158 39.22ZM124.054 34.65C124.567 34.65 125.027 34.7633 125.434 34.99C125.841 35.2167 126.157 35.5333 126.384 35.94C126.617 36.3467 126.734 36.8167 126.734 37.35C126.734 37.8833 126.617 38.3567 126.384 38.77C126.157 39.1767 125.841 39.4933 125.434 39.72C125.027 39.9467 124.567 40.06 124.054 40.06C123.674 40.06 123.324 39.9867 123.004 39.84C122.691 39.6933 122.424 39.48 122.204 39.2V41.94H121.244V34.7H122.164V35.54C122.377 35.2467 122.647 35.0267 122.974 34.88C123.301 34.7267 123.661 34.65 124.054 34.65ZM123.974 39.22C124.314 39.22 124.617 39.1433 124.884 38.99C125.157 38.83 125.371 38.61 125.524 38.33C125.684 38.0433 125.764 37.7167 125.764 37.35C125.764 36.9833 125.684 36.66 125.524 36.38C125.371 36.0933 125.157 35.8733 124.884 35.72C124.617 35.5667 124.314 35.49 123.974 35.49C123.641 35.49 123.337 35.57 123.064 35.73C122.797 35.8833 122.584 36.1 122.424 36.38C122.271 36.66 122.194 36.9833 122.194 37.35C122.194 37.7167 122.271 38.0433 122.424 38.33C122.577 38.61 122.791 38.83 123.064 38.99C123.337 39.1433 123.641 39.22 123.974 39.22Z" fill="black"/>
<g clip-path="url(#clip0_830_342)">
<path d="M101 0.959961C94.9085 0.959961 89.96 5.90854 89.96 12C89.96 13.9579 90.4969 15.7852 91.3925 17.3803L89.9778 22.4306C89.9552 22.5114 89.9542 22.5967 89.9748 22.6781C89.9955 22.7594 90.0371 22.8339 90.0955 22.8941C90.154 22.9544 90.2272 22.9982 90.3078 23.0213C90.3885 23.0445 90.4738 23.046 90.5553 23.0259L95.8212 21.7209C97.3686 22.547 99.1244 23.04 101 23.04C107.091 23.04 112.04 18.0914 112.04 12C112.04 5.90854 107.091 0.959961 101 0.959961ZM101 1.91996C106.573 1.91996 111.08 6.42738 111.08 12C111.08 17.5725 106.573 22.08 101 22.08C99.2134 22.08 97.5402 21.6142 96.0856 20.8003C95.9792 20.7408 95.8542 20.7241 95.7359 20.7534L91.1243 21.8962L92.3609 17.4843C92.3786 17.422 92.3835 17.3567 92.3753 17.2924C92.367 17.2281 92.3459 17.1662 92.3131 17.1103C91.4291 15.6113 90.92 13.8672 90.92 12C90.92 6.42738 95.4274 1.91996 101 1.91996ZM96.9884 6.23996C96.6807 6.23996 96.2413 6.35444 95.8803 6.7434C95.6635 6.97702 94.76 7.85733 94.76 9.40496C94.76 11.0185 95.879 12.4108 96.0143 12.5896H96.0153V12.5906C96.0024 12.5737 96.187 12.841 96.4334 13.1615C96.6798 13.482 97.0243 13.903 97.4571 14.3587C98.3228 15.2702 99.5399 16.3235 101.051 16.9678C101.746 17.264 102.295 17.4429 102.711 17.5734C103.481 17.8154 104.183 17.7786 104.711 17.7009C105.105 17.6428 105.539 17.4533 105.969 17.1815C106.398 16.9098 106.819 16.5718 107.005 16.0584C107.138 15.6903 107.205 15.3502 107.23 15.0703C107.242 14.9303 107.243 14.8068 107.234 14.6925C107.225 14.5781 107.235 14.4905 107.128 14.3156C106.905 13.9487 106.652 13.9391 106.388 13.8084C106.241 13.7358 105.823 13.5318 105.404 13.3321C104.986 13.1327 104.623 12.9561 104.4 12.8765C104.259 12.8258 104.087 12.7528 103.839 12.7809C103.59 12.809 103.345 12.9882 103.202 13.2C103.067 13.4006 102.522 14.044 102.356 14.2331C102.353 14.2317 102.368 14.2384 102.302 14.2059C102.097 14.1042 101.845 14.0177 101.473 13.8215C101.101 13.6253 100.636 13.3356 100.127 12.8868V12.8859C99.3694 12.2188 98.8387 11.3813 98.6712 11.1C98.6825 11.0865 98.6699 11.1028 98.6937 11.0793L98.6946 11.0784C98.8658 10.9098 99.0174 10.7085 99.1456 10.5609C99.3273 10.3516 99.4075 10.1671 99.4943 9.99465C99.6675 9.65105 99.5711 9.27296 99.4709 9.07402V9.07309C99.4778 9.08685 99.4167 8.95204 99.3509 8.79652C99.2849 8.64057 99.2008 8.43838 99.1109 8.22277C98.9312 7.79156 98.7305 7.30792 98.6112 7.02465V7.02371C98.4706 6.69005 98.2805 6.44968 98.0318 6.33371C97.7832 6.21775 97.5635 6.25071 97.5546 6.25027H97.5537C97.3763 6.24209 97.1816 6.23996 96.9884 6.23996ZM96.9884 7.19996C97.1735 7.19996 97.3559 7.20222 97.5087 7.20934C97.6659 7.21717 97.6561 7.21781 97.6259 7.20371C97.5952 7.18939 97.6369 7.18474 97.7262 7.39684C97.843 7.67421 98.0447 8.1596 98.225 8.59215C98.3151 8.80842 98.3995 9.01139 98.4668 9.17059C98.5342 9.32978 98.5707 9.41866 98.6131 9.5034V9.50434L98.614 9.50527C98.6556 9.58723 98.6519 9.53476 98.6375 9.5634C98.5362 9.76444 98.5224 9.8138 98.42 9.93184C98.264 10.1116 98.1048 10.312 98.0206 10.395C97.9469 10.4674 97.8139 10.5801 97.7309 10.8009C97.6477 11.022 97.6866 11.3254 97.82 11.5518C97.9976 11.8534 98.5829 12.806 99.4925 13.6068C100.065 14.1118 100.599 14.446 101.025 14.6709C101.452 14.8958 101.799 15.0271 101.877 15.0656C102.061 15.1569 102.263 15.2278 102.497 15.1996C102.732 15.1715 102.934 15.0292 103.062 14.8837L103.063 14.8828C103.235 14.6886 103.744 14.1075 103.988 13.7493C103.998 13.753 103.995 13.7502 104.076 13.7793V13.7803H104.077C104.114 13.7935 104.578 14.0012 104.992 14.1984C105.406 14.3956 105.826 14.6005 105.962 14.6681C106.159 14.7656 106.252 14.829 106.276 14.8293C106.278 14.8716 106.279 14.9173 106.273 14.9868C106.257 15.1796 106.205 15.4465 106.102 15.7322C106.051 15.872 105.788 16.1604 105.456 16.3706C105.124 16.5807 104.72 16.7292 104.57 16.7512C104.12 16.8175 103.586 16.8417 102.999 16.6575C102.592 16.5297 102.084 16.3644 101.427 16.0847C100.095 15.5164 98.9626 14.5495 98.1537 13.6978C97.7492 13.2719 97.4252 12.8755 97.1946 12.5756C96.9645 12.2762 96.8641 12.1205 96.7803 12.0103L96.7793 12.0093C96.6306 11.8127 95.72 10.546 95.72 9.40496C95.72 8.1974 96.2808 7.72385 96.5843 7.39684C96.7437 7.22516 96.9179 7.19996 96.9884 7.19996Z" fill="black"/>
</g>
<defs>
<clipPath id="clip0_830_342">
<rect width="24" height="24" fill="white" transform="translate(89)"/>
</clipPath>
</defs>
</svg>
