<svg width="248" height="30" viewBox="0 0 248 30" fill="none" xmlns="http://www.w3.org/2000/svg">
<path d="M28.89 16.5H26.235V19.125H24.63V16.5H21.975V15H24.63V12.375H26.235V15H28.89V16.5ZM38.2812 10.5V11.805L34.2012 21H32.1162L36.0612 12.15H31.9362V13.935H30.1212V10.5H38.2812ZM50.4427 15.48C50.9927 15.73 51.4127 16.07 51.7027 16.5C52.0027 16.92 52.1527 17.415 52.1527 17.985C52.1527 18.625 51.9727 19.185 51.6127 19.665C51.2627 20.145 50.7627 20.515 50.1127 20.775C49.4627 21.025 48.7077 21.15 47.8477 21.15C46.9877 21.15 46.2327 21.025 45.5827 20.775C44.9427 20.515 44.4477 20.145 44.0977 19.665C43.7477 19.185 43.5727 18.625 43.5727 17.985C43.5727 17.415 43.7177 16.92 44.0077 16.5C44.2977 16.07 44.7127 15.73 45.2527 15.48C44.8327 15.25 44.5077 14.95 44.2777 14.58C44.0577 14.2 43.9477 13.765 43.9477 13.275C43.9477 12.685 44.1077 12.17 44.4277 11.73C44.7577 11.29 45.2177 10.95 45.8077 10.71C46.3977 10.47 47.0777 10.35 47.8477 10.35C48.6277 10.35 49.3127 10.47 49.9027 10.71C50.4927 10.95 50.9527 11.29 51.2827 11.73C51.6127 12.17 51.7777 12.685 51.7777 13.275C51.7777 13.765 51.6627 14.195 51.4327 14.565C51.2027 14.935 50.8727 15.24 50.4427 15.48ZM47.8477 11.88C47.2377 11.88 46.7527 12.01 46.3927 12.27C46.0427 12.53 45.8677 12.895 45.8677 13.365C45.8677 13.815 46.0427 14.175 46.3927 14.445C46.7527 14.705 47.2377 14.835 47.8477 14.835C48.4677 14.835 48.9577 14.705 49.3177 14.445C49.6777 14.175 49.8577 13.815 49.8577 13.365C49.8577 12.895 49.6727 12.53 49.3027 12.27C48.9427 12.01 48.4577 11.88 47.8477 11.88ZM47.8477 19.62C48.5677 19.62 49.1377 19.47 49.5577 19.17C49.9777 18.87 50.1877 18.455 50.1877 17.925C50.1877 17.405 49.9777 16.995 49.5577 16.695C49.1377 16.395 48.5677 16.245 47.8477 16.245C47.1277 16.245 46.5627 16.395 46.1527 16.695C45.7427 16.995 45.5377 17.405 45.5377 17.925C45.5377 18.455 45.7427 18.87 46.1527 19.17C46.5627 19.47 47.1277 19.62 47.8477 19.62ZM58.1878 14.52C58.8778 14.52 59.4978 14.655 60.0478 14.925C60.5978 15.185 61.0278 15.56 61.3378 16.05C61.6478 16.54 61.8028 17.105 61.8028 17.745C61.8028 18.425 61.6328 19.025 61.2928 19.545C60.9528 20.055 60.4928 20.45 59.9128 20.73C59.3328 21.01 58.6828 21.15 57.9628 21.15C56.5228 21.15 55.4028 20.7 54.6028 19.8C53.8128 18.9 53.4178 17.61 53.4178 15.93C53.4178 14.75 53.6328 13.745 54.0628 12.915C54.4928 12.075 55.0928 11.44 55.8628 11.01C56.6428 10.57 57.5428 10.35 58.5628 10.35C59.1028 10.35 59.6078 10.41 60.0778 10.53C60.5578 10.64 60.9728 10.805 61.3228 11.025L60.6028 12.495C60.0828 12.155 59.4178 11.985 58.6078 11.985C57.5978 11.985 56.8078 12.295 56.2378 12.915C55.6678 13.535 55.3828 14.43 55.3828 15.6V15.615C55.6928 15.255 56.0878 14.985 56.5678 14.805C57.0478 14.615 57.5878 14.52 58.1878 14.52ZM57.8578 19.62C58.4678 19.62 58.9628 19.46 59.3428 19.14C59.7228 18.81 59.9128 18.375 59.9128 17.835C59.9128 17.285 59.7228 16.85 59.3428 16.53C58.9628 16.21 58.4528 16.05 57.8128 16.05C57.1828 16.05 56.6678 16.22 56.2678 16.56C55.8778 16.9 55.6828 17.33 55.6828 17.85C55.6828 18.36 55.8728 18.785 56.2528 19.125C56.6428 19.455 57.1778 19.62 57.8578 19.62ZM66.4521 10.5V21H64.5021V12.135H62.2821V10.5H66.4521ZM80.2855 19.35V21H72.5455V19.695L76.7155 15.735C77.1855 15.285 77.5005 14.895 77.6605 14.565C77.8305 14.225 77.9155 13.89 77.9155 13.56C77.9155 13.07 77.7505 12.695 77.4205 12.435C77.0905 12.175 76.6055 12.045 75.9655 12.045C74.8955 12.045 74.0755 12.41 73.5055 13.14L72.1405 12.09C72.5505 11.54 73.1005 11.115 73.7905 10.815C74.4905 10.505 75.2705 10.35 76.1305 10.35C77.2705 10.35 78.1805 10.62 78.8605 11.16C79.5405 11.7 79.8805 12.435 79.8805 13.365C79.8805 13.935 79.7605 14.47 79.5205 14.97C79.2805 15.47 78.8205 16.04 78.1405 16.68L75.3355 19.35H80.2855ZM85.747 21.15C84.907 21.15 84.157 20.94 83.497 20.52C82.837 20.09 82.317 19.47 81.937 18.66C81.557 17.84 81.367 16.87 81.367 15.75C81.367 14.63 81.557 13.665 81.937 12.855C82.317 12.035 82.837 11.415 83.497 10.995C84.157 10.565 84.907 10.35 85.747 10.35C86.587 10.35 87.337 10.565 87.997 10.995C88.667 11.415 89.192 12.035 89.572 12.855C89.952 13.665 90.142 14.63 90.142 15.75C90.142 16.87 89.952 17.84 89.572 18.66C89.192 19.47 88.667 20.09 87.997 20.52C87.337 20.94 86.587 21.15 85.747 21.15ZM85.747 19.455C86.497 19.455 87.087 19.145 87.517 18.525C87.957 17.905 88.177 16.98 88.177 15.75C88.177 14.52 87.957 13.595 87.517 12.975C87.087 12.355 86.497 12.045 85.747 12.045C85.007 12.045 84.417 12.355 83.977 12.975C83.547 13.595 83.332 14.52 83.332 15.75C83.332 16.98 83.547 17.905 83.977 18.525C84.417 19.145 85.007 19.455 85.747 19.455ZM100.82 18.615H98.9598V21H97.0698V18.615H91.3098V17.265L96.4848 10.5H98.5698L93.6948 16.965H97.1298V14.85H98.9598V16.965H100.82V18.615ZM113.391 19.35V21H105.651V19.695L109.821 15.735C110.291 15.285 110.606 14.895 110.766 14.565C110.936 14.225 111.021 13.89 111.021 13.56C111.021 13.07 110.856 12.695 110.526 12.435C110.196 12.175 109.711 12.045 109.071 12.045C108.001 12.045 107.181 12.41 106.611 13.14L105.246 12.09C105.656 11.54 106.206 11.115 106.896 10.815C107.596 10.505 108.376 10.35 109.236 10.35C110.376 10.35 111.286 10.62 111.966 11.16C112.646 11.7 112.986 12.435 112.986 13.365C112.986 13.935 112.866 14.47 112.626 14.97C112.386 15.47 111.926 16.04 111.246 16.68L108.441 19.35H113.391ZM123.657 18.615H121.797V21H119.907V18.615H114.147V17.265L119.322 10.5H121.407L116.532 16.965H119.967V14.85H121.797V16.965H123.657V18.615ZM137.983 18.615H136.123V21H134.233V18.615H128.473V17.265L133.648 10.5H135.733L130.858 16.965H134.293V14.85H136.123V16.965H137.983V18.615ZM143.574 14.52C144.264 14.52 144.884 14.655 145.434 14.925C145.984 15.185 146.414 15.56 146.724 16.05C147.034 16.54 147.189 17.105 147.189 17.745C147.189 18.425 147.019 19.025 146.679 19.545C146.339 20.055 145.879 20.45 145.299 20.73C144.719 21.01 144.069 21.15 143.349 21.15C141.909 21.15 140.789 20.7 139.989 19.8C139.199 18.9 138.804 17.61 138.804 15.93C138.804 14.75 139.019 13.745 139.449 12.915C139.879 12.075 140.479 11.44 141.249 11.01C142.029 10.57 142.929 10.35 143.949 10.35C144.489 10.35 144.994 10.41 145.464 10.53C145.944 10.64 146.359 10.805 146.709 11.025L145.989 12.495C145.469 12.155 144.804 11.985 143.994 11.985C142.984 11.985 142.194 12.295 141.624 12.915C141.054 13.535 140.769 14.43 140.769 15.6V15.615C141.079 15.255 141.474 14.985 141.954 14.805C142.434 14.615 142.974 14.52 143.574 14.52ZM143.244 19.62C143.854 19.62 144.349 19.46 144.729 19.14C145.109 18.81 145.299 18.375 145.299 17.835C145.299 17.285 145.109 16.85 144.729 16.53C144.349 16.21 143.839 16.05 143.199 16.05C142.569 16.05 142.054 16.22 141.654 16.56C141.264 16.9 141.069 17.33 141.069 17.85C141.069 18.36 141.259 18.785 141.639 19.125C142.029 19.455 142.564 19.62 143.244 19.62Z" fill="black"/>
<path fill-rule="evenodd" clip-rule="evenodd" d="M5.5 17.7691L0.558318 14L0 14.8051L5.5 19L11 14.8051L10.4417 14L5.5 17.7691Z" fill="#323232"/>
<path d="M182.6 1.79999C178.3 1.79999 174.8 5.29948 174.8 9.59999V20.4C174.8 24.7005 178.3 28.2 182.6 28.2H193.4C197.701 28.2 201.2 24.7005 201.2 20.4V9.59999C201.2 5.29948 197.701 1.79999 193.4 1.79999H182.6ZM182.6 2.99999H193.4C197.052 2.99999 200 5.9481 200 9.59999V20.4C200 24.0519 197.052 27 193.4 27H182.6C178.948 27 176 24.0519 176 20.4V9.59999C176 5.9481 178.948 2.99999 182.6 2.99999ZM195.2 6.59999C194.882 6.59999 194.577 6.72642 194.352 6.95146C194.126 7.1765 194 7.48173 194 7.79999C194 8.11825 194.126 8.42347 194.352 8.64852C194.577 8.87356 194.882 8.99999 195.2 8.99999C195.518 8.99999 195.824 8.87356 196.049 8.64852C196.274 8.42347 196.4 8.11825 196.4 7.79999C196.4 7.48173 196.274 7.1765 196.049 6.95146C195.824 6.72642 195.518 6.59999 195.2 6.59999ZM188 8.39999C184.362 8.39999 181.4 11.362 181.4 15C181.4 18.638 184.362 21.6 188 21.6C191.638 21.6 194.6 18.638 194.6 15C194.6 11.362 191.638 8.39999 188 8.39999ZM188 9.59999C190.989 9.59999 193.4 12.0105 193.4 15C193.4 17.9894 190.989 20.4 188 20.4C185.011 20.4 182.6 17.9894 182.6 15C182.6 12.0105 185.011 9.59999 188 9.59999Z" fill="black"/>
<path d="M233 1.20001C225.386 1.20001 219.2 7.38573 219.2 15C219.2 17.4475 219.871 19.7315 220.991 21.7254L219.222 28.0383C219.194 28.1393 219.193 28.246 219.219 28.3476C219.244 28.4493 219.296 28.5424 219.369 28.6177C219.442 28.693 219.534 28.7478 219.635 28.7767C219.736 28.8056 219.842 28.8076 219.944 28.7824L226.527 27.1512C228.461 28.1838 230.656 28.8 233 28.8C240.614 28.8 246.8 22.6143 246.8 15C246.8 7.38573 240.614 1.20001 233 1.20001ZM233 2.40001C239.966 2.40001 245.6 8.03429 245.6 15C245.6 21.9657 239.966 27.6 233 27.6C230.767 27.6 228.675 27.0178 226.857 26.0004C226.724 25.9261 226.568 25.9051 226.42 25.9418L220.655 27.3703L222.201 21.8555C222.223 21.7775 222.229 21.6959 222.219 21.6156C222.209 21.5352 222.182 21.4578 222.141 21.3879C221.036 19.5142 220.4 17.3341 220.4 15C220.4 8.03429 226.034 2.40001 233 2.40001ZM227.985 7.80001C227.601 7.80001 227.052 7.94311 226.6 8.42931C226.329 8.72134 225.2 9.82172 225.2 11.7563C225.2 13.7732 226.599 15.5135 226.768 15.7371H226.769V15.7383C226.753 15.7172 226.984 16.0513 227.292 16.452C227.6 16.8526 228.03 17.3788 228.571 17.9484C229.654 19.0878 231.175 20.4045 233.063 21.2098C233.933 21.5801 234.619 21.8037 235.139 21.9668C236.102 22.2693 236.979 22.2233 237.638 22.1262C238.132 22.0535 238.674 21.8167 239.211 21.477C239.748 21.1372 240.274 20.7148 240.506 20.0731C240.672 19.613 240.757 19.1878 240.787 18.8379C240.802 18.663 240.804 18.5086 240.793 18.3656C240.782 18.2227 240.794 18.1132 240.66 17.8945C240.381 17.4359 240.065 17.4239 239.735 17.2606C239.551 17.1698 239.029 16.9148 238.505 16.6652C237.982 16.416 237.529 16.1952 237.25 16.0957C237.074 16.0323 236.859 15.941 236.548 15.9762C236.238 16.0113 235.931 16.2354 235.753 16.5C235.583 16.7509 234.902 17.555 234.694 17.7914C234.692 17.7897 234.71 17.798 234.628 17.7574C234.371 17.6303 234.057 17.5222 233.592 17.277C233.127 17.0317 232.545 16.6696 231.909 16.1086V16.1074C230.962 15.2736 230.298 14.2267 230.089 13.875C230.103 13.8582 230.087 13.8786 230.117 13.8492L230.118 13.8481C230.332 13.6374 230.522 13.3857 230.682 13.2012C230.909 12.9395 231.009 12.7089 231.118 12.4934C231.334 12.0639 231.214 11.5913 231.089 11.3426V11.3414C231.097 11.3586 231.021 11.1901 230.939 10.9957C230.856 10.8008 230.751 10.548 230.639 10.2785C230.414 9.73951 230.163 9.13496 230.014 8.78087V8.7797C229.838 8.36262 229.601 8.06216 229.29 7.9172C228.979 7.77224 228.704 7.81345 228.693 7.8129H228.692C228.47 7.80267 228.227 7.80001 227.985 7.80001ZM227.985 9.00001C228.217 9.00001 228.445 9.00283 228.636 9.01173C228.832 9.02152 228.82 9.02233 228.782 9.0047C228.744 8.98679 228.796 8.98098 228.908 9.24611C229.054 9.59282 229.306 10.1996 229.531 10.7402C229.644 11.0106 229.749 11.2643 229.834 11.4633C229.918 11.6623 229.963 11.7734 230.016 11.8793V11.8805L230.018 11.8817C230.069 11.9841 230.065 11.9185 230.047 11.9543C229.92 12.2056 229.903 12.2673 229.775 12.4149C229.58 12.6395 229.381 12.8901 229.276 12.9938C229.184 13.0843 229.017 13.2252 228.914 13.5012C228.81 13.7776 228.858 14.1568 229.025 14.4399C229.247 14.8168 229.979 16.0076 231.116 17.0086C231.832 17.6398 232.499 18.0576 233.032 18.3387C233.564 18.6198 233.999 18.784 234.096 18.832C234.326 18.9462 234.578 19.0348 234.871 18.9996C235.165 18.9644 235.417 18.7866 235.578 18.6047L235.579 18.6035C235.793 18.3608 236.429 17.6344 236.735 17.1867C236.748 17.1913 236.743 17.1877 236.845 17.2242V17.2254H236.846C236.892 17.2419 237.473 17.5016 237.99 17.7481C238.507 17.9945 239.032 18.2507 239.203 18.3352C239.449 18.457 239.565 18.5363 239.595 18.5367C239.597 18.5895 239.599 18.6467 239.592 18.7336C239.571 18.9746 239.506 19.3081 239.377 19.6652C239.314 19.8401 238.985 20.2006 238.57 20.4633C238.155 20.726 237.65 20.9115 237.462 20.9391C236.9 21.022 236.232 21.0522 235.498 20.8219C234.99 20.6622 234.356 20.4556 233.534 20.1059C231.869 19.3956 230.453 18.1869 229.442 17.1223C228.937 16.59 228.531 16.0944 228.243 15.7195C227.956 15.3454 227.83 15.1506 227.725 15.0129L227.724 15.0117C227.538 14.7659 226.4 13.1825 226.4 11.7563C226.4 10.2468 227.101 9.65487 227.48 9.24611C227.68 9.03151 227.897 9.00001 227.985 9.00001Z" fill="black"/>
</svg>
