<svg width="82" height="50" viewBox="0 0 82 50" fill="none" xmlns="http://www.w3.org/2000/svg">
<path d="M9.5998 21.8C5.2993 21.8 1.7998 25.2995 1.7998 29.6V40.4C1.7998 44.7005 5.2993 48.2 9.5998 48.2H20.3998C24.7003 48.2 28.1998 44.7005 28.1998 40.4V29.6C28.1998 25.2995 24.7003 21.8 20.3998 21.8H9.5998ZM9.5998 23H20.3998C24.0517 23 26.9998 25.9481 26.9998 29.6V40.4C26.9998 44.0519 24.0517 47 20.3998 47H9.5998C5.94791 47 2.9998 44.0519 2.9998 40.4V29.6C2.9998 25.9481 5.94791 23 9.5998 23ZM22.1998 26.6C21.8815 26.6 21.5763 26.7264 21.3513 26.9515C21.1262 27.1765 20.9998 27.4817 20.9998 27.8C20.9998 28.1183 21.1262 28.4235 21.3513 28.6485C21.5763 28.8736 21.8815 29 22.1998 29C22.5181 29 22.8233 28.8736 23.0483 28.6485C23.2734 28.4235 23.3998 28.1183 23.3998 27.8C23.3998 27.4817 23.2734 27.1765 23.0483 26.9515C22.8233 26.7264 22.5181 26.6 22.1998 26.6ZM14.9998 28.4C11.3618 28.4 8.39981 31.362 8.39981 35C8.39981 38.638 11.3618 41.6 14.9998 41.6C18.6378 41.6 21.5998 38.638 21.5998 35C21.5998 31.362 18.6378 28.4 14.9998 28.4ZM14.9998 29.6C17.9893 29.6 20.3998 32.0106 20.3998 35C20.3998 37.9894 17.9893 40.4 14.9998 40.4C12.0104 40.4 9.5998 37.9894 9.5998 35C9.5998 32.0106 12.0104 29.6 14.9998 29.6Z" fill="black"/>
<path d="M65.0002 21.2C57.3859 21.2 51.2002 27.3857 51.2002 35C51.2002 37.4475 51.8714 39.7315 52.9908 41.7254L51.2225 48.0383C51.1942 48.1393 51.1929 48.246 51.2188 48.3476C51.2446 48.4493 51.2966 48.5424 51.3696 48.6177C51.4427 48.693 51.5342 48.7478 51.635 48.7767C51.7359 48.8056 51.8425 48.8076 51.9443 48.7824L58.5268 47.1512C60.461 48.1838 62.6557 48.8 65.0002 48.8C72.6145 48.8 78.8002 42.6143 78.8002 35C78.8002 27.3857 72.6145 21.2 65.0002 21.2ZM65.0002 22.4C71.9659 22.4 77.6002 28.0343 77.6002 35C77.6002 41.9657 71.9659 47.6 65.0002 47.6C62.767 47.6 60.6755 47.0178 58.8572 46.0004C58.7242 45.9261 58.568 45.9051 58.4201 45.9418L52.6557 47.3703L54.2014 41.8555C54.2235 41.7775 54.2296 41.6959 54.2193 41.6156C54.209 41.5352 54.1826 41.4578 54.1416 41.3879C53.0366 39.5142 52.4002 37.3341 52.4002 35C52.4002 28.0343 58.0345 22.4 65.0002 22.4ZM59.9857 27.8C59.6011 27.8 59.0518 27.9431 58.6006 28.4293C58.3296 28.7213 57.2002 29.8217 57.2002 31.7562C57.2002 33.7732 58.599 35.5135 58.7682 35.7371H58.7693V35.7383C58.7533 35.7172 58.984 36.0513 59.292 36.452C59.6 36.8526 60.0306 37.3788 60.5717 37.9484C61.6538 39.0877 63.1752 40.4045 65.0635 41.2098C65.9331 41.5801 66.6191 41.8036 67.1389 41.9668C68.1021 42.2693 68.9794 42.2233 69.6385 42.1262C70.1318 42.0535 70.6743 41.8167 71.2111 41.477C71.7479 41.1372 72.274 40.7148 72.5061 40.073C72.6723 39.6129 72.7567 39.1878 72.7873 38.8379C72.8026 38.663 72.8045 38.5086 72.7932 38.3656C72.7818 38.2227 72.7939 38.1132 72.6607 37.8945C72.3814 37.4359 72.065 37.4239 71.735 37.2605C71.5516 37.1698 71.0294 36.9148 70.5057 36.6652C69.9825 36.416 69.5295 36.1952 69.2506 36.0957C69.0743 36.0323 68.8591 35.941 68.5486 35.9762C68.2381 36.0113 67.9315 36.2354 67.7529 36.5C67.5837 36.7508 66.9024 37.555 66.6947 37.7914C66.692 37.7897 66.71 37.798 66.6279 37.7574C66.3711 37.6303 66.0569 37.5222 65.592 37.277C65.1271 37.0317 64.5455 36.6696 63.9092 36.1086V36.1074C62.962 35.2736 62.2986 34.2267 62.0893 33.875C62.1034 33.8582 62.0876 33.8785 62.1174 33.8492L62.1186 33.848C62.3325 33.6374 62.522 33.3857 62.6822 33.2012C62.9093 32.9395 63.0096 32.7089 63.1182 32.4934C63.3346 32.0639 63.2141 31.5912 63.0889 31.3426V31.3414C63.0975 31.3586 63.0211 31.1901 62.9389 30.9957C62.8564 30.8008 62.7512 30.548 62.6389 30.2785C62.4142 29.7395 62.1634 29.1349 62.0143 28.7809V28.7797C61.8385 28.3626 61.6008 28.0621 61.29 27.9172C60.9792 27.7722 60.7047 27.8134 60.6936 27.8129H60.6924C60.4706 27.8027 60.2272 27.8 59.9857 27.8ZM59.9857 29C60.2171 29 60.4451 29.0028 60.6361 29.0117C60.8326 29.0215 60.8204 29.0223 60.7826 29.0047C60.7442 28.9868 60.7963 28.981 60.908 29.2461C61.0541 29.5928 61.3061 30.1995 61.5314 30.7402C61.6441 31.0106 61.7496 31.2643 61.8338 31.4633C61.918 31.6623 61.9636 31.7734 62.0166 31.8793V31.8805L62.0178 31.8816C62.0697 31.9841 62.0651 31.9185 62.0471 31.9543C61.9205 32.2056 61.9033 32.2673 61.7752 32.4148C61.5802 32.6395 61.3813 32.89 61.276 32.9937C61.1839 33.0842 61.0176 33.2252 60.9139 33.5012C60.8099 33.7775 60.8584 34.1567 61.0252 34.4398C61.2472 34.8168 61.9788 36.0076 63.1158 37.0086C63.8319 37.6398 64.4989 38.0576 65.0318 38.3387C65.5647 38.6198 65.9988 38.784 66.0959 38.832C66.3265 38.9462 66.5786 39.0348 66.8717 38.9996C67.1648 38.9644 67.4175 38.7866 67.5783 38.6047L67.5795 38.6035C67.7936 38.3608 68.4297 37.6344 68.735 37.1867C68.7479 37.1913 68.7437 37.1877 68.8451 37.2242V37.2254H68.8463C68.8926 37.2419 69.4728 37.5016 69.99 37.748C70.5073 37.9945 71.0323 38.2507 71.2029 38.3352C71.4491 38.457 71.5655 38.5363 71.5955 38.5367C71.5975 38.5895 71.5996 38.6467 71.592 38.7336C71.5709 38.9746 71.5065 39.3081 71.3775 39.6652C71.3143 39.84 70.9852 40.2006 70.5701 40.4633C70.155 40.726 69.6498 40.9115 69.4627 40.9391C68.9001 41.022 68.2322 41.0522 67.4986 40.8219C66.99 40.6622 66.3558 40.4556 65.5346 40.1059C63.8691 39.3956 62.4535 38.1869 61.4424 37.1223C60.9368 36.5899 60.5317 36.0944 60.2436 35.7195C59.9559 35.3453 59.8303 35.1506 59.7256 35.0129L59.7244 35.0117C59.5385 34.7659 58.4002 33.1825 58.4002 31.7562C58.4002 30.2468 59.1013 29.6549 59.4807 29.2461C59.6798 29.0315 59.8976 29 59.9857 29Z" fill="black"/>
<path d="M7.58 10L7.57 4.9L5.04 9.15H4.58L2.05 4.93V10H1.09V3H1.91L4.83 7.92L7.71 3H8.53L8.54 10H7.58ZM12.9489 6.5C13.6156 6.50667 14.1256 6.66 14.4789 6.96C14.8322 7.26 15.0089 7.68333 15.0089 8.23C15.0089 8.80333 14.8156 9.24667 14.4289 9.56C14.0489 9.86667 13.5022 10.0167 12.7889 10.01L10.5589 10V4.7H11.5189V6.49L12.9489 6.5ZM15.7989 4.7H16.7589V10H15.7989V4.7ZM12.7189 9.28C13.1522 9.28667 13.4789 9.2 13.6989 9.02C13.9256 8.84 14.0389 8.57333 14.0389 8.22C14.0389 7.87333 13.9289 7.62 13.7089 7.46C13.4889 7.3 13.1589 7.21667 12.7189 7.21L11.5189 7.19V9.27L12.7189 9.28ZM24.9209 7.25C25.6075 7.42333 25.9509 7.85333 25.9509 8.54C25.9509 9.00667 25.7742 9.36667 25.4209 9.62C25.0742 9.87333 24.5542 10 23.8609 10H21.3109V4.7H23.7709C24.3975 4.7 24.8875 4.82 25.2409 5.06C25.5942 5.29333 25.7709 5.62667 25.7709 6.06C25.7709 6.34 25.6942 6.58333 25.5409 6.79C25.3942 6.99 25.1875 7.14333 24.9209 7.25ZM22.2509 6.98H23.6909C24.0575 6.98 24.3342 6.91333 24.5209 6.78C24.7142 6.64667 24.8109 6.45333 24.8109 6.2C24.8109 5.69333 24.4375 5.44 23.6909 5.44H22.2509V6.98ZM23.7909 9.26C24.1909 9.26 24.4909 9.19667 24.6909 9.07C24.8909 8.94333 24.9909 8.74667 24.9909 8.48C24.9909 8.20667 24.8975 8.00333 24.7109 7.87C24.5309 7.73667 24.2442 7.67 23.8509 7.67H22.2509V9.26H23.7909ZM32.449 10.06C31.909 10.06 31.4257 9.94333 30.999 9.71C30.579 9.47667 30.249 9.15667 30.009 8.75C29.769 8.33667 29.649 7.87 29.649 7.35C29.649 6.83 29.769 6.36667 30.009 5.96C30.249 5.54667 30.579 5.22667 30.999 5C31.4257 4.76667 31.909 4.65 32.449 4.65C32.929 4.65 33.3557 4.74667 33.729 4.94C34.109 5.13333 34.4023 5.41333 34.609 5.78L33.879 6.25C33.7123 5.99667 33.5057 5.80667 33.259 5.68C33.0123 5.55333 32.739 5.49 32.439 5.49C32.0923 5.49 31.779 5.56667 31.499 5.72C31.2257 5.87333 31.009 6.09333 30.849 6.38C30.6957 6.66 30.619 6.98333 30.619 7.35C30.619 7.72333 30.6957 8.05333 30.849 8.34C31.009 8.62 31.2257 8.83667 31.499 8.99C31.779 9.14333 32.0923 9.22 32.439 9.22C32.739 9.22 33.0123 9.15667 33.259 9.03C33.5057 8.90333 33.7123 8.71333 33.879 8.46L34.609 8.92C34.4023 9.28667 34.109 9.57 33.729 9.77C33.3557 9.96333 32.929 10.06 32.449 10.06ZM38.0438 10.06C37.5171 10.06 37.0438 9.94333 36.6238 9.71C36.2038 9.47667 35.8738 9.15667 35.6338 8.75C35.4004 8.33667 35.2838 7.87 35.2838 7.35C35.2838 6.83 35.4004 6.36667 35.6338 5.96C35.8738 5.54667 36.2038 5.22667 36.6238 5C37.0438 4.76667 37.5171 4.65 38.0438 4.65C38.5704 4.65 39.0404 4.76667 39.4538 5C39.8738 5.22667 40.2004 5.54667 40.4338 5.96C40.6738 6.36667 40.7938 6.83 40.7938 7.35C40.7938 7.87 40.6738 8.33667 40.4338 8.75C40.2004 9.15667 39.8738 9.47667 39.4538 9.71C39.0404 9.94333 38.5704 10.06 38.0438 10.06ZM38.0438 9.22C38.3838 9.22 38.6871 9.14333 38.9538 8.99C39.2271 8.83 39.4404 8.61 39.5938 8.33C39.7471 8.04333 39.8238 7.71667 39.8238 7.35C39.8238 6.98333 39.7471 6.66 39.5938 6.38C39.4404 6.09333 39.2271 5.87333 38.9538 5.72C38.6871 5.56667 38.3838 5.49 38.0438 5.49C37.7038 5.49 37.3971 5.56667 37.1238 5.72C36.8571 5.87333 36.6438 6.09333 36.4838 6.38C36.3304 6.66 36.2538 6.98333 36.2538 7.35C36.2538 7.71667 36.3304 8.04333 36.4838 8.33C36.6438 8.61 36.8571 8.83 37.1238 8.99C37.3971 9.14333 37.7038 9.22 38.0438 9.22ZM47.84 9.16V11.27H46.93V10H42.18V4.7H43.14V9.16H46.04V4.7H47V9.16H47.84ZM49.2943 10.06C49.1076 10.06 48.9476 9.99667 48.8143 9.87C48.681 9.73667 48.6143 9.57 48.6143 9.37C48.6143 9.17667 48.681 9.01667 48.8143 8.89C48.9476 8.75667 49.1076 8.69 49.2943 8.69C49.481 8.69 49.6376 8.75333 49.7643 8.88C49.891 9.00667 49.9543 9.17 49.9543 9.37C49.9543 9.57 49.8876 9.73667 49.7543 9.87C49.6276 9.99667 49.4743 10.06 49.2943 10.06ZM56.3455 10.06C55.8055 10.06 55.3221 9.94333 54.8955 9.71C54.4755 9.47667 54.1455 9.15667 53.9055 8.75C53.6655 8.33667 53.5455 7.87 53.5455 7.35C53.5455 6.83 53.6655 6.36667 53.9055 5.96C54.1455 5.54667 54.4755 5.22667 54.8955 5C55.3221 4.76667 55.8055 4.65 56.3455 4.65C56.8255 4.65 57.2521 4.74667 57.6255 4.94C58.0055 5.13333 58.2988 5.41333 58.5055 5.78L57.7755 6.25C57.6088 5.99667 57.4021 5.80667 57.1555 5.68C56.9088 5.55333 56.6355 5.49 56.3355 5.49C55.9888 5.49 55.6755 5.56667 55.3955 5.72C55.1221 5.87333 54.9055 6.09333 54.7455 6.38C54.5921 6.66 54.5155 6.98333 54.5155 7.35C54.5155 7.72333 54.5921 8.05333 54.7455 8.34C54.9055 8.62 55.1221 8.83667 55.3955 8.99C55.6755 9.14333 55.9888 9.22 56.3355 9.22C56.6355 9.22 56.9088 9.15667 57.1555 9.03C57.4021 8.90333 57.6088 8.71333 57.7755 8.46L58.5055 8.92C58.2988 9.28667 58.0055 9.57 57.6255 9.77C57.2521 9.96333 56.8255 10.06 56.3455 10.06ZM64.4602 7.38C64.4602 7.45333 64.4536 7.55 64.4402 7.67H60.1402C60.2002 8.13667 60.4036 8.51333 60.7502 8.8C61.1036 9.08 61.5402 9.22 62.0602 9.22C62.6936 9.22 63.2036 9.00667 63.5902 8.58L64.1202 9.2C63.8802 9.48 63.5802 9.69333 63.2202 9.84C62.8669 9.98667 62.4702 10.06 62.0302 10.06C61.4702 10.06 60.9736 9.94667 60.5402 9.72C60.1069 9.48667 59.7702 9.16333 59.5302 8.75C59.2969 8.33667 59.1802 7.87 59.1802 7.35C59.1802 6.83667 59.2936 6.37333 59.5202 5.96C59.7536 5.54667 60.0702 5.22667 60.4702 5C60.8769 4.76667 61.3336 4.65 61.8402 4.65C62.3469 4.65 62.7969 4.76667 63.1902 5C63.5902 5.22667 63.9002 5.54667 64.1202 5.96C64.3469 6.37333 64.4602 6.84667 64.4602 7.38ZM61.8402 5.46C61.3802 5.46 60.9936 5.6 60.6802 5.88C60.3736 6.16 60.1936 6.52667 60.1402 6.98H63.5402C63.4869 6.53333 63.3036 6.17 62.9902 5.89C62.6836 5.60333 62.3002 5.46 61.8402 5.46ZM69.6749 5.54H67.7349V10H66.7749V5.54H64.8349V4.7H69.6749V5.54ZM74.8187 4.7V10H73.9587V8.32H72.4187H72.3087L71.1487 10H70.1187L71.4087 8.19C71.0087 8.07 70.702 7.87333 70.4887 7.6C70.2753 7.32 70.1687 6.97333 70.1687 6.56C70.1687 5.95333 70.3753 5.49333 70.7887 5.18C71.202 4.86 71.772 4.7 72.4987 4.7H74.8187ZM71.1487 6.59C71.1487 6.94333 71.2587 7.20667 71.4787 7.38C71.7053 7.54667 72.042 7.63 72.4887 7.63H73.9587V5.54H72.5287C71.6087 5.54 71.1487 5.89 71.1487 6.59ZM80.0017 10L78.4717 7.97L76.9217 10H75.8517L77.9417 7.29L75.9517 4.7H77.0217L78.4817 6.61L79.9317 4.7H80.9817L78.9817 7.29L81.0917 10H80.0017Z" fill="#7E7E7E"/>
</svg>
