<svg width="87" height="44" viewBox="0 0 87 44" fill="none" xmlns="http://www.w3.org/2000/svg">
<g clip-path="url(#clip0_714_31)">
<path d="M21.0192 42.9524C20.5536 42.9646 20.0905 42.8816 19.658 42.7086C19.2256 42.5356 18.833 42.2763 18.5042 41.9464C17.836 41.2744 17.502 40.2722 17.502 38.9283C17.5014 37.8741 17.7089 36.8303 18.1125 35.8564C18.509 34.8822 19.0543 33.9754 19.7291 33.1685C20.3576 32.4111 21.1123 31.768 21.96 31.2678C22.6893 30.8216 23.5243 30.5777 24.3791 30.5613C25.2392 30.5613 25.8267 30.8147 26.1416 31.3292C26.4433 31.7992 26.6057 32.3451 26.61 32.9036C26.6211 33.4662 26.4748 34.0208 26.1877 34.5048C26.0773 34.7144 25.9115 34.8897 25.7084 35.0116C25.5053 35.1335 25.2726 35.1972 25.0357 35.196C24.8575 35.195 24.682 35.1516 24.5238 35.0695C24.3655 34.9874 24.2291 34.8689 24.1257 34.7237C24.5027 34.4819 24.79 34.1231 24.9436 33.7023C25.1612 33.246 25.279 32.7485 25.2891 32.2431C25.3002 32.0388 25.2508 31.8358 25.1471 31.6595C25.0785 31.5841 24.9928 31.5263 24.8973 31.4909C24.8017 31.4555 24.6991 31.4435 24.598 31.456C23.9436 31.4947 23.3249 31.7672 22.8547 32.2239C22.2047 32.7856 21.6429 33.4419 21.1882 34.1707C20.6773 34.9584 20.2561 35.8007 19.9326 36.682C19.6236 37.4745 19.4585 38.3158 19.4449 39.1664C19.4396 39.7943 19.6027 40.4122 19.9172 40.9557C20.2282 41.501 20.8388 41.7736 21.7373 41.7736C22.6255 41.7601 23.496 41.5223 24.2677 41.0824C25.1729 40.5737 25.9761 39.9019 26.6369 39.1011C27.3933 38.2051 27.9895 37.1854 28.3994 36.0868L28.8064 36.4017C28.3404 37.6293 27.6719 38.7701 26.8289 39.7769C26.0546 40.7165 25.1183 41.5098 24.0642 42.1192C23.1385 42.6559 22.0893 42.9431 21.0192 42.9524Z" fill="#A260A3"/>
<path d="M29.9733 42.196C29.0697 42.196 28.4297 41.9195 28.0534 41.3665C27.661 40.7648 27.4626 40.0572 27.4851 39.3391C27.4915 38.6567 27.5976 37.9788 27.8 37.327C28.0048 36.6493 28.2843 35.9963 28.6332 35.3802C28.9336 34.8277 29.3228 34.3282 29.7852 33.9019C30.1341 33.5589 30.598 33.3577 31.0869 33.3374C31.1985 33.3382 31.3095 33.3537 31.4171 33.3835C31.5323 33.4181 31.6437 33.4526 31.7473 33.4949C31.4789 33.7694 31.2513 34.081 31.0715 34.4203C30.7898 34.9142 30.5434 35.4275 30.3343 35.9562C30.1085 36.5155 29.9149 37.0873 29.7545 37.6688C29.6114 38.1387 29.5314 38.6255 29.5164 39.1164C29.4775 39.5924 29.5876 40.0688 29.8313 40.4795C29.9216 40.6128 30.0436 40.7215 30.1864 40.7959C30.3292 40.8703 30.4882 40.908 30.6491 40.9058C31.2349 40.845 31.7856 40.5973 32.2197 40.1992C32.8844 39.668 33.4849 39.061 34.009 38.3907C33.3989 37.876 32.9287 37.2156 32.642 36.4708C32.3239 35.7092 32.1595 34.8923 32.1582 34.067C32.1529 33.401 32.2754 32.7401 32.5192 32.1202C32.7328 31.5483 33.0961 31.0444 33.5713 30.6611C34.0442 30.2893 34.6325 30.095 35.2339 30.112C36.094 30.112 36.67 30.3424 36.9618 30.8032C37.2825 31.3267 37.4427 31.9328 37.4226 32.5464C37.397 33.4812 37.1937 34.4025 36.8236 35.2612C36.4211 36.2686 35.9167 37.2323 35.3184 38.1372C35.6828 38.3431 36.0941 38.4516 36.5126 38.4521C36.8971 38.4427 37.2779 38.374 37.6415 38.2486C38.0957 38.0915 38.5164 37.8506 38.8818 37.5382C39.3148 37.1744 39.6545 36.7123 39.8724 36.1904L40.2564 36.5015C39.9265 37.3841 39.2992 38.1242 38.4824 38.5942C37.8155 38.9745 37.065 39.1842 36.2976 39.2047C36.0397 39.204 35.7825 39.1783 35.5296 39.1279C35.2806 39.0765 35.0384 38.9966 34.8077 38.8898C34.1436 39.7836 33.3548 40.5776 32.4654 41.2475C31.7613 41.8286 30.8856 42.1619 29.9733 42.196ZM34.5811 37.5882C35.0996 36.8242 35.5372 36.0083 35.8867 35.1537C36.2135 34.3936 36.3895 33.5772 36.4051 32.75C36.4384 32.2884 36.3455 31.8265 36.1363 31.4137C36.0739 31.288 35.9783 31.1819 35.8598 31.1068C35.7413 31.0316 35.6046 30.9904 35.4643 30.9875C35.0419 30.9875 34.6157 31.2947 34.1741 31.9014C33.7138 32.5792 33.4824 33.3865 33.5137 34.2053C33.5151 34.828 33.6056 35.4474 33.7825 36.0445C33.9398 36.6077 34.2147 37.1311 34.5888 37.5805L34.5811 37.5882Z" fill="#A260A3"/>
<path d="M41.8812 42.146C40.9776 42.146 40.3376 41.8376 39.9613 41.2206C39.5544 40.5228 39.3534 39.724 39.3815 38.9167C39.413 37.7043 39.6027 36.5012 39.946 35.338C40.3579 33.8534 40.8567 32.3944 41.4397 30.9683C42.0566 29.4323 42.7324 27.9399 43.4671 26.491C44.2018 25.0421 44.9339 23.7174 45.6635 22.5168C46.2616 21.5117 46.9396 20.5563 47.6909 19.6599C48.3091 18.9457 48.7968 18.5925 49.1539 18.5925C49.2745 18.5973 49.3913 18.6358 49.4911 18.7037C49.5908 18.7716 49.6696 18.8661 49.7183 18.9765C49.877 19.2723 49.9933 19.589 50.0639 19.9172C50.1429 20.2417 50.1854 20.574 50.1906 20.9079C50.1561 21.6631 50.0125 22.4093 49.7644 23.1235C49.431 24.1639 49.0322 25.1822 48.5702 26.1723C48.0308 27.3373 47.4231 28.4695 46.7501 29.5629C46.048 30.702 45.2787 31.7983 44.4462 32.8459C43.6715 33.8338 42.7922 34.735 41.8236 35.5338C41.6969 36.0983 41.6009 36.6474 41.5241 37.1811C41.4534 37.69 41.4174 38.2032 41.4166 38.717C41.3772 39.3444 41.496 39.9715 41.7622 40.541C41.8616 40.7276 42.0116 40.8824 42.195 40.9876C42.3784 41.0929 42.5877 41.1444 42.799 41.1361C43.4366 41.1026 44.0378 40.8281 44.4808 40.3682C45.0836 39.8045 45.6114 39.1657 46.0513 38.4675C46.5377 37.7117 46.9627 36.9181 47.3223 36.0944L47.7946 36.3479C47.1094 37.8899 46.1869 39.3151 45.0606 40.5717C44.0648 41.6212 43.005 42.146 41.8812 42.146ZM42.1001 34.4663C42.877 33.6801 43.5908 32.834 44.2351 31.9359C44.9249 30.9797 45.5657 29.989 46.155 28.9677C46.754 27.9425 47.2839 26.9441 47.7447 25.9842C48.1523 25.1424 48.5087 24.2769 48.8121 23.3923C49.0258 22.8215 49.1552 22.2225 49.1961 21.6144C49.2121 21.4737 49.1839 21.3314 49.1155 21.2074C49.0656 21.146 49.0195 21.1114 48.9773 21.1114C48.8083 21.1114 48.5203 21.3802 48.1133 21.9139C47.5982 22.6048 47.12 23.3226 46.681 24.0642C46.1409 24.9653 45.5867 25.9893 45.0184 27.1361C44.4501 28.2829 43.9099 29.4874 43.398 30.7494C42.903 31.9657 42.4698 33.2063 42.1001 34.4663Z" fill="#A260A3"/>
<path d="M48.9428 42.0078C48.6002 42.0333 48.2565 41.977 47.94 41.8434C47.6236 41.7099 47.3434 41.503 47.1227 41.2398C46.7158 40.7029 46.5045 40.0432 46.5237 39.3698C46.5439 38.7536 46.6341 38.1417 46.7925 37.5459C46.986 36.7657 47.2218 35.9966 47.499 35.242C47.7811 34.4581 48.1225 33.6969 48.5204 32.965C48.8534 32.3307 49.2705 31.7442 49.7606 31.2217C49.9197 31.0286 50.1158 30.8694 50.3374 30.7533C50.559 30.6372 50.8015 30.5667 51.0508 30.5459C51.2279 30.5419 51.4002 30.6034 51.5346 30.7187C51.6063 30.7837 51.6622 30.8641 51.6981 30.954C51.734 31.0438 51.749 31.1406 51.742 31.2371C51.6714 31.6762 51.505 32.0945 51.2543 32.462C50.928 33.0264 50.5478 33.6754 50.1024 34.4088C49.6585 35.1453 49.2733 35.9156 48.9504 36.7127C48.6408 37.442 48.4752 38.2243 48.4628 39.0166C48.4628 39.7845 48.5895 40.2722 48.8468 40.5256C49.0041 40.6622 49.1869 40.7663 49.3845 40.8322C49.5822 40.8981 49.7909 40.9244 49.9987 40.9096C50.7104 40.9096 51.4694 40.5538 52.2757 39.8421C53.0821 39.1305 53.9358 37.8838 54.8369 36.1021L55.1172 36.417C54.6408 38.0141 53.7334 39.449 52.4946 40.564C51.5235 41.4579 50.2621 41.9707 48.9428 42.0078ZM52.7135 27.6199C52.3975 27.6245 52.0868 27.5378 51.8188 27.3703C51.6937 27.2866 51.5925 27.1718 51.5252 27.0372C51.4579 26.9025 51.4267 26.7527 51.4348 26.6024C51.4502 26.3598 51.5293 26.1256 51.6642 25.9233C51.799 25.7211 51.9848 25.558 52.2028 25.4504C52.6574 25.144 53.1906 24.9748 53.7387 24.9628C54.0125 24.9481 54.2832 25.0266 54.5067 25.1855C54.6108 25.2822 54.6905 25.4022 54.7392 25.5357C54.788 25.6692 54.8043 25.8124 54.787 25.9534C54.7719 26.1813 54.7061 26.403 54.5945 26.6023C54.4829 26.8015 54.3283 26.9734 54.1419 27.1054C53.747 27.4471 53.2395 27.6305 52.7173 27.6199H52.7135Z" fill="#A260A3"/>
<path d="M57.179 43.4861C56.0885 43.4861 55.277 43.1303 54.7446 42.4187C54.1699 41.5677 53.8882 40.5527 53.9421 39.5273C53.9717 38.274 54.1508 37.0288 54.4758 35.818C54.8628 34.3012 55.3359 32.8076 55.8927 31.3446C56.4763 29.7805 57.1304 28.2561 57.8549 26.7713C58.5793 25.2866 59.3076 23.9414 60.0397 22.7357C60.6407 21.7103 61.3348 20.7424 62.1132 19.8443C62.7634 19.1224 63.2972 18.7614 63.7144 18.7614C64.0715 18.7614 64.325 18.9803 64.4824 19.4219C64.6374 19.8438 64.718 20.2895 64.7205 20.739C64.6936 21.4664 64.5644 22.1864 64.3365 22.8777C64.0499 23.8002 63.6917 24.6989 63.2652 25.5656C62.7937 26.5367 62.2589 27.4757 61.664 28.3764C61.0779 29.2704 60.4218 30.1166 59.7018 30.9068C59.0744 31.609 58.3488 32.2168 57.5477 32.7116C57.3333 33.1764 57.1499 33.6549 56.9986 34.1438C56.7325 34.9578 56.512 35.7859 56.3381 36.6244C56.144 37.5176 56.0449 38.4289 56.0424 39.343C56.0147 40.069 56.1457 40.7924 56.4264 41.4626C56.5356 41.7226 56.7227 41.9424 56.9621 42.0917C57.2014 42.2409 57.4811 42.3122 57.7627 42.2958C58.455 42.2634 59.1174 42.0044 59.6481 41.5585C60.3078 41.0511 60.8445 40.4014 61.2185 39.6578C60.4663 39.2828 59.8589 38.67 59.4906 37.9145C59.1247 37.2012 58.9301 36.4123 58.9223 35.6106C58.8781 34.7349 59.1584 33.8736 59.7095 33.1915C59.9302 32.9101 60.2116 32.6821 60.5328 32.5245C60.8539 32.3669 61.2064 32.2839 61.5641 32.2815C61.8472 32.2739 62.1277 32.3373 62.38 32.4661C62.6322 32.5949 62.8481 32.7849 63.0079 33.0188C63.4057 33.6637 63.5923 34.4168 63.5417 35.1729C63.5395 35.8765 63.4557 36.5775 63.2921 37.2618C63.1211 37.9864 62.8632 38.6878 62.5241 39.3506C62.6278 39.3698 62.7391 39.3852 62.8543 39.3967C63.3155 39.4408 63.7809 39.3896 64.2215 39.2463C64.6621 39.103 65.0685 38.8705 65.4155 38.5635C66.1018 37.9507 66.6761 37.223 67.1127 36.4132C67.5927 35.5495 68.0073 34.651 68.353 33.7253C68.6985 32.796 68.9942 31.9705 69.2476 31.2601C69.1642 31.1574 69.0909 31.0468 69.0288 30.9299C68.9562 30.778 68.9232 30.6103 68.9328 30.4422C68.9268 29.9144 69.1107 29.4019 69.4511 28.9984C69.7967 28.5799 70.0847 28.3687 70.3151 28.3687C70.4841 28.3687 70.5877 28.4762 70.63 28.6836C70.6608 28.8175 70.6814 28.9536 70.6914 29.0906C70.6818 29.3157 70.6228 29.5359 70.5186 29.7357C70.4172 29.9255 70.3583 30.1352 70.3458 30.3501C70.3632 30.5007 70.4166 30.6449 70.5015 30.7706C70.5864 30.8962 70.7002 30.9996 70.8335 31.072L71.9509 31.8706C72.3787 32.188 72.7545 32.5702 73.0644 33.0034C73.4037 33.497 73.5747 34.0868 73.5521 34.6852C73.549 35.3378 73.4186 35.9834 73.1681 36.586C72.9032 37.2234 72.6421 37.8377 72.4002 38.4214C72.1653 38.9128 72.0346 39.4475 72.0162 39.9919C71.9986 40.1266 72.015 40.2637 72.064 40.3904C72.113 40.5172 72.1929 40.6297 72.2965 40.7176C72.4934 40.8439 72.7231 40.9093 72.9569 40.9058C73.5017 40.8874 74.0318 40.7244 74.4928 40.4335C75.0493 40.0962 75.5647 39.6954 76.0288 39.2393C76.5214 38.7659 76.9735 38.2522 77.3804 37.7033C77.735 37.2457 78.0305 36.7451 78.2597 36.2135L78.6706 36.5245C78.2408 37.4562 77.6909 38.3275 77.0348 39.1164C76.3827 39.9317 75.605 40.6381 74.7309 41.2091C73.9541 41.7289 73.0429 42.0117 72.1083 42.0232C71.4984 42.0598 70.8973 41.8636 70.4265 41.4741C70.2161 41.28 70.0517 41.0414 69.9454 40.7757C69.8391 40.5099 69.7935 40.2238 69.8121 39.9381C69.8264 39.2747 69.9767 38.6212 70.2537 38.0182C70.5455 37.3398 70.8335 36.6538 71.1176 35.9601C71.3781 35.3645 71.5215 34.7244 71.54 34.0747C71.5607 33.8034 71.5192 33.531 71.4187 33.2782C71.3182 33.0253 71.1614 32.7987 70.9602 32.6156C70.5826 32.2977 70.1891 31.9991 69.7814 31.7209C69.5254 32.5145 69.2272 33.3938 68.8867 34.3589C68.5453 35.3144 68.1133 36.235 67.5965 37.1082C67.1178 37.9378 66.4843 38.6677 65.7303 39.2585C64.9718 39.8335 64.04 40.1328 63.0886 40.1071C62.9421 40.1064 62.7959 40.0961 62.6508 40.0764L62.1785 40.0149C61.6338 40.954 60.9265 41.7887 60.0896 42.4801C59.2703 43.1514 58.2381 43.5082 57.179 43.4861ZM57.9009 31.4828C58.542 30.9693 59.1171 30.3786 59.6135 29.7242C60.1799 28.9991 60.6993 28.2385 61.1686 27.4472C61.6525 26.6408 62.0787 25.8498 62.4588 25.0741C62.7968 24.3923 63.0905 23.6895 63.3381 22.9699C63.5102 22.5164 63.6162 22.0405 63.653 21.5568C63.6603 21.4871 63.6483 21.4167 63.6184 21.3533C63.6096 21.337 63.5961 21.3235 63.5798 21.3147C63.5634 21.3058 63.5448 21.3019 63.5263 21.3034C63.3573 21.3034 63.0386 21.6029 62.5663 22.2019C61.9887 22.9597 61.4639 23.7565 60.9958 24.5865C60.4199 25.5848 59.849 26.6856 59.2833 27.8887C58.7341 29.0509 58.272 30.2522 57.9009 31.4828ZM61.5449 39.0243C61.7795 38.5338 61.9586 38.0186 62.0787 37.4883C62.2067 36.9486 62.2712 36.3957 62.2707 35.841C62.2972 35.2502 62.195 34.6606 61.9712 34.1131C61.7715 33.6946 61.5257 33.4834 61.2339 33.4834C60.9421 33.4834 60.6387 33.6984 60.4007 34.1285C60.1432 34.6273 60.0189 35.1841 60.0397 35.745C60.0485 36.3572 60.1655 36.963 60.3853 37.5344C60.5953 38.1462 61.0034 38.6705 61.5449 39.0243Z" fill="#A260A3"/>
<path d="M79.8304 42.0078C79.4878 42.034 79.1439 41.9779 78.8274 41.8443C78.5108 41.7108 78.2307 41.5035 78.0104 41.2399C77.6035 40.703 77.3922 40.0432 77.4114 39.3698C77.4297 38.7535 77.5199 38.1414 77.6801 37.5459C77.8719 36.7652 78.1078 35.996 78.3867 35.242C78.6687 34.4581 79.0102 33.6969 79.4081 32.965C79.7397 32.3298 80.157 31.7433 80.6483 31.2217C80.8065 31.0286 81.0019 30.8693 81.2229 30.7532C81.4439 30.6371 81.6859 30.5666 81.9347 30.5459C82.1129 30.542 82.2864 30.6035 82.4223 30.7187C82.4935 30.7839 82.5488 30.8645 82.5841 30.9543C82.6194 31.0442 82.6336 31.1409 82.6258 31.2371C82.5572 31.6761 82.392 32.0945 82.142 32.462C81.8144 33.0277 81.4304 33.6767 80.9901 34.4088C80.5463 35.1454 80.1611 35.9157 79.8381 36.7127C79.5303 37.4426 79.3648 38.2246 79.3505 39.0166C79.3505 39.7692 79.4785 40.2722 79.7345 40.5256C79.8917 40.6624 80.0744 40.7667 80.2721 40.8325C80.4698 40.8984 80.6786 40.9246 80.8864 40.9096C81.6006 40.9096 82.3571 40.5525 83.1673 39.8421C83.9775 39.1318 84.8261 37.8838 85.7246 36.1021L86.0088 36.417C85.5324 38.0141 84.6249 39.449 83.3861 40.564C82.4137 41.4582 81.151 41.9709 79.8304 42.0078ZM83.6012 27.62C83.2851 27.6245 82.9745 27.5378 82.7065 27.3704C82.5814 27.2866 82.4802 27.1718 82.4129 27.0372C82.3455 26.9025 82.3144 26.7527 82.3225 26.6024C82.3372 26.3596 82.416 26.1251 82.5509 25.9227C82.6858 25.7203 82.872 25.5573 83.0905 25.4504C83.5451 25.1441 84.0783 24.9748 84.6264 24.9628C84.9004 24.9466 85.1716 25.0252 85.3944 25.1855C85.4989 25.282 85.5792 25.4019 85.6286 25.5354C85.678 25.6689 85.6951 25.8121 85.6785 25.9535C85.6634 26.1813 85.5976 26.403 85.4861 26.6023C85.3745 26.8016 85.2198 26.9734 85.0334 27.1054C84.6362 27.4483 84.1258 27.6317 83.6012 27.62Z" fill="#A260A3"/>
<path d="M17.4213 18.3116H4.41964L1.04059 25.9913H0L11.4043 -0.012085H12.8481L24.2178 26.0182H20.762L17.4213 18.3116ZM17.0719 17.5705L10.9282 3.4169L4.71532 17.5705H17.0719Z" fill="#A260A3"/>
<path d="M50.4438 26.0187H46.6577C45.8662 25.4516 45.2104 24.7159 44.7378 23.8646L40.7981 16.9529C40.2646 16.051 39.4764 15.3269 38.5326 14.8717H32.2084V26.0072H28.8984V0H39.1162C44.492 0 48.5507 3.15635 48.5507 7.39168C48.5507 11.2546 45.3176 14.192 40.752 14.7488C42.5337 15.2672 43.9813 16.1964 44.7262 17.4981L48.0669 23.1811C48.6591 24.278 49.4677 25.2433 50.4438 26.0187ZM32.2084 14.1152H38.4827C42.4607 14.1152 45.0949 11.4773 45.0949 7.43008C45.0949 3.3829 42.4607 0.744929 38.4827 0.744929H32.2084V14.1152Z" fill="#A260A3"/>
<path d="M71.6934 0.744929H62.9655V26.0187H59.6594V0.744929H50.8623V0H71.7011L71.6934 0.744929Z" fill="#A260A3"/>
<path d="M20.2517 42.1844C19.7861 42.1966 19.3229 42.1136 18.8904 41.9406C18.458 41.7676 18.0654 41.5083 17.7366 41.1784C17.0684 40.5064 16.7344 39.5042 16.7344 38.1603C16.7339 37.1061 16.9413 36.0622 17.3449 35.0884C17.7414 34.1142 18.2867 33.2074 18.9615 32.4005C19.59 31.6431 20.3448 31 21.1924 30.4998C21.9217 30.0535 22.7567 29.8097 23.6115 29.7933C24.4716 29.7933 25.0591 30.0467 25.374 30.5612C25.6757 31.0312 25.8381 31.5771 25.8425 32.1356C25.8535 32.6982 25.7072 33.2528 25.4201 33.7368C25.3097 33.9464 25.144 34.1217 24.9408 34.2436C24.7377 34.3654 24.505 34.4292 24.2681 34.428C24.0899 34.427 23.9144 34.3836 23.7562 34.3015C23.598 34.2194 23.4615 34.1009 23.3581 33.9557C23.7351 33.7139 24.0225 33.3551 24.176 32.9343C24.3936 32.478 24.5114 31.9805 24.5216 31.4751C24.5326 31.2708 24.4832 31.0678 24.3795 30.8915C24.3109 30.8161 24.2252 30.7583 24.1297 30.7229C24.0342 30.6875 23.9315 30.6755 23.8304 30.688C23.176 30.7267 22.5573 30.9992 22.0871 31.4559C21.4371 32.0176 20.8753 32.6739 20.4206 33.4027C19.9097 34.1904 19.4885 35.0327 19.165 35.914C18.856 36.7065 18.6909 37.5478 18.6773 38.3983C18.672 39.0263 18.8351 39.6442 19.1496 40.1877C19.4607 40.733 20.0712 41.0056 20.9697 41.0056C21.858 40.9921 22.7284 40.7543 23.5002 40.3144C24.4053 39.8057 25.2085 39.1339 25.8693 38.3331C26.6257 37.4371 27.2219 36.4174 27.6318 35.3188L28.0389 35.6337C27.5728 36.8613 26.9044 38.0021 26.0613 39.0089C25.287 39.9485 24.3507 40.7418 23.2967 41.3512C22.3709 41.8879 21.3217 42.1751 20.2517 42.1844Z" fill="#EDC454"/>
<path d="M29.2058 41.428C28.3021 41.428 27.6622 41.1515 27.2858 40.5986C26.8934 39.9969 26.695 39.2892 26.7175 38.5712C26.7239 37.8887 26.83 37.2109 27.0324 36.5591C27.2372 35.8813 27.5167 35.2284 27.8657 34.6123C28.166 34.0597 28.5552 33.5603 29.0176 33.134C29.3665 32.791 29.8304 32.5898 30.3193 32.5695C30.4309 32.5703 30.542 32.5857 30.6495 32.6156C30.7647 32.6501 30.8761 32.6847 30.9798 32.7269C30.7113 33.0015 30.4837 33.3131 30.304 33.6523C30.0222 34.1462 29.7758 34.6595 29.5667 35.1883C29.3409 35.7476 29.1473 36.3194 28.9869 36.9008C28.8439 37.3707 28.7638 37.8575 28.7488 38.3485C28.7099 38.8245 28.82 39.3008 29.0637 39.7116C29.154 39.8449 29.2761 39.9536 29.4188 40.028C29.5616 40.1024 29.7206 40.1401 29.8816 40.1378C30.4674 40.0771 31.018 39.8294 31.4521 39.4313C32.1168 38.9001 32.7173 38.2931 33.2414 37.6227C32.6313 37.1081 32.1611 36.4477 31.8744 35.7028C31.5564 34.9413 31.392 34.1244 31.3906 33.2991C31.3853 32.633 31.5079 31.9722 31.7516 31.3523C31.9652 30.7804 32.3286 30.2764 32.8037 29.8931C33.2767 29.5213 33.865 29.327 34.4663 29.344C35.3265 29.344 35.9024 29.5744 36.1943 30.0352C36.5149 30.5588 36.6751 31.1649 36.655 31.7785C36.6294 32.7132 36.4261 33.6346 36.056 34.4933C35.6535 35.5007 35.1491 36.4643 34.5508 37.3693C34.9152 37.5752 35.3265 37.6836 35.745 37.6842C36.1295 37.6747 36.5103 37.6061 36.8739 37.4807C37.3282 37.3236 37.7489 37.0826 38.1142 36.7703C38.5472 36.4065 38.8869 35.9444 39.1049 35.4225L39.4888 35.7335C39.1589 36.6162 38.5316 37.3562 37.7148 37.8262C37.0479 38.2066 36.2974 38.4163 35.53 38.4368C35.2721 38.4361 35.0149 38.4104 34.762 38.36C34.5131 38.3085 34.2708 38.2287 34.0401 38.1219C33.376 39.0157 32.5872 39.8096 31.6978 40.4796C30.9938 41.0607 30.118 41.394 29.2058 41.428ZM33.8136 36.8202C34.332 36.0562 34.7696 35.2403 35.1191 34.3858C35.4459 33.6256 35.622 32.8093 35.6375 31.982C35.6708 31.5205 35.5779 31.0585 35.3687 30.6457C35.3063 30.5201 35.2107 30.414 35.0922 30.3388C34.9738 30.2637 34.837 30.2224 34.6967 30.2195C34.2743 30.2195 33.8481 30.5267 33.4065 31.1334C32.9462 31.8112 32.7148 32.6185 32.7461 33.4373C32.7475 34.0601 32.838 34.6795 33.0149 35.2766C33.1723 35.8397 33.4471 36.3632 33.8212 36.8125L33.8136 36.8202Z" fill="#EDC454"/>
<path d="M41.1127 41.3781C40.209 41.3781 39.5691 41.0696 39.1928 40.4527C38.7858 39.7549 38.5848 38.9561 38.6129 38.1488C38.6444 36.9364 38.8342 35.7333 39.1774 34.57C39.5894 33.0855 40.0881 31.6264 40.6711 30.2003C41.288 28.6644 41.9638 27.172 42.6985 25.7231C43.4332 24.2742 44.1653 22.9494 44.8949 21.7488C45.493 20.7437 46.171 19.7884 46.9223 18.892C47.5406 18.1778 48.0282 17.8245 48.3853 17.8245C48.5059 17.8293 48.6227 17.8679 48.7225 17.9357C48.8223 18.0036 48.901 18.0981 48.9498 18.2085C49.1084 18.5044 49.2247 18.8211 49.2954 19.1493C49.3744 19.4737 49.4169 19.806 49.4221 20.1399C49.3875 20.8952 49.244 21.6414 48.9959 22.3555C48.6625 23.396 48.2636 24.4143 47.8017 25.4044C47.2623 26.5694 46.6545 27.7016 45.9816 28.7949C45.2795 29.934 44.5101 31.0303 43.6777 32.078C42.9029 33.0659 42.0236 33.9671 41.0551 34.7659C40.9284 35.3303 40.8324 35.8794 40.7556 36.4132C40.6848 36.9221 40.6489 37.4353 40.6481 37.9491C40.6086 38.5764 40.7275 39.2036 40.9936 39.773C41.0931 39.9596 41.2431 40.1144 41.4264 40.2197C41.6098 40.325 41.8191 40.3764 42.0304 40.3682C42.6681 40.3346 43.2692 40.0601 43.7123 39.6002C44.315 39.0366 44.8428 38.3978 45.2827 37.6995C45.7691 36.9437 46.1942 36.1502 46.5537 35.3265L47.026 35.5799C46.3409 37.122 45.4184 38.5472 44.2921 39.8037C43.2963 40.8533 42.2365 41.3781 41.1127 41.3781ZM41.3315 33.6984C42.1084 32.9122 42.8223 32.0661 43.4665 31.168C44.1564 30.2117 44.7972 29.2211 45.3864 28.1998C45.9854 27.1745 46.5153 26.1762 46.9761 25.2162C47.3837 24.3745 47.7402 23.509 48.0436 22.6243C48.2573 22.0535 48.3866 21.4546 48.4276 20.8465C48.4435 20.7057 48.4153 20.5635 48.3469 20.4395C48.297 20.378 48.2509 20.3435 48.2087 20.3435C48.0398 20.3435 47.7518 20.6122 47.3447 21.146C46.8296 21.8369 46.3515 22.5547 45.9125 23.2963C45.3698 24.1974 44.8156 25.2213 44.2498 26.3682C43.6841 27.515 43.144 28.7194 42.6294 29.9814C42.1345 31.1978 41.7013 32.4383 41.3315 33.6984Z" fill="#EDC454"/>
<path d="M48.1742 41.2398C47.8317 41.2653 47.488 41.209 47.1715 41.0755C46.855 40.9419 46.5749 40.735 46.3541 40.4719C45.9472 39.935 45.7359 39.2752 45.7551 38.6019C45.7754 37.9857 45.8656 37.3738 46.0239 36.7779C46.2174 35.9977 46.4533 35.2286 46.7304 34.474C47.0125 33.6902 47.354 32.9289 47.7518 32.197C48.0848 31.5627 48.502 30.9763 48.9921 30.4537C49.1511 30.2607 49.3472 30.1014 49.5688 29.9853C49.7904 29.8693 50.033 29.7987 50.2823 29.7779C50.4593 29.7739 50.6316 29.8354 50.7661 29.9507C50.8377 30.0157 50.8936 30.0962 50.9295 30.186C50.9655 30.2758 50.9805 30.3726 50.9734 30.4691C50.9029 30.9083 50.7364 31.3265 50.4858 31.694C50.1594 32.2584 49.7793 32.9074 49.3338 33.6408C48.89 34.3773 48.5048 35.1477 48.1819 35.9447C47.8723 36.674 47.7067 37.4564 47.6942 38.2486C47.6942 39.0166 47.8209 39.5042 48.0782 39.7576C48.2356 39.8942 48.4183 39.9984 48.616 40.0643C48.8136 40.1301 49.0223 40.1564 49.2302 40.1416C49.9418 40.1416 50.7008 39.7858 51.5072 39.0742C52.3135 38.3625 53.1673 37.1158 54.0683 35.3342L54.3487 35.649C53.8723 37.2462 52.9648 38.6811 51.726 39.796C50.755 40.6899 49.4935 41.2027 48.1742 41.2398ZM51.9449 26.852C51.6289 26.8565 51.3183 26.7699 51.0502 26.6024C50.9251 26.5187 50.8239 26.4038 50.7566 26.2692C50.6893 26.1346 50.6581 25.9847 50.6662 25.8344C50.6817 25.5918 50.7608 25.3576 50.8956 25.1554C51.0305 24.9531 51.2162 24.79 51.4342 24.6824C51.8889 24.3761 52.422 24.2068 52.9702 24.1948C53.2439 24.1801 53.5146 24.2586 53.7381 24.4175C53.8422 24.5142 53.922 24.6343 53.9707 24.7678C54.0194 24.9013 54.0358 25.0444 54.0184 25.1855C54.0033 25.4134 53.9376 25.635 53.826 25.8343C53.7144 26.0336 53.5597 26.2054 53.3733 26.3374C52.9784 26.6792 52.4709 26.8625 51.9488 26.852H51.9449Z" fill="#EDC454"/>
<path d="M56.4115 42.7182C55.321 42.7182 54.5095 42.3623 53.977 41.6507C53.4023 40.7998 53.1206 39.7847 53.1745 38.7593C53.2041 37.506 53.3832 36.2608 53.7082 35.05C54.0952 33.5332 54.5683 32.0396 55.1251 30.5766C55.7088 29.0125 56.3628 27.4881 57.0873 26.0034C57.8117 24.5186 58.54 23.1734 59.2721 21.9677C59.8732 20.9423 60.5672 19.9745 61.3456 19.0763C61.9959 18.3544 62.5296 17.9935 62.9468 17.9935C63.304 17.9935 63.5574 18.2123 63.7148 18.6539C63.8698 19.0758 63.9504 19.5215 63.9529 19.971C63.9261 20.6984 63.7968 21.4184 63.5689 22.1098C63.2823 23.0322 62.9241 23.9309 62.4976 24.7977C62.0262 25.7687 61.4913 26.7077 60.8964 27.6084C60.3103 28.5025 59.6542 29.3486 58.9342 30.1389C58.3068 30.841 57.5813 31.4489 56.7801 31.9436C56.5658 32.4084 56.3823 32.8869 56.231 33.3759C55.9649 34.1898 55.7444 35.0179 55.5705 35.8564C55.3764 36.7496 55.2773 37.6609 55.2749 38.575C55.2471 39.301 55.3781 40.0244 55.6588 40.6946C55.768 40.9546 55.9552 41.1744 56.1945 41.3237C56.4338 41.4729 56.7135 41.5442 56.9951 41.5278C57.6874 41.4955 58.3499 41.2364 58.8805 40.7906C59.5402 40.2831 60.077 39.6334 60.451 38.8898C59.6987 38.5149 59.0914 37.9021 58.723 37.1466C58.3571 36.4332 58.1625 35.6444 58.1547 34.8427C58.1106 33.9669 58.3908 33.1056 58.9419 32.4236C59.1626 32.1421 59.4441 31.9141 59.7652 31.7565C60.0863 31.5989 60.4389 31.5159 60.7966 31.5135C61.0797 31.5059 61.3602 31.5694 61.6124 31.6982C61.8646 31.827 62.0805 32.017 62.2403 32.2508C62.6381 32.8958 62.8247 33.6488 62.7741 34.4049C62.7719 35.1085 62.6881 35.8095 62.5245 36.4938C62.3535 37.2185 62.0956 37.9198 61.7565 38.5827C61.8602 38.6019 61.9715 38.6172 62.0867 38.6287C62.548 38.6729 63.0133 38.6217 63.4539 38.4783C63.8945 38.335 64.3009 38.1026 64.6479 37.7955C65.3342 37.1827 65.9085 36.455 66.3451 35.6452C66.8251 34.7815 67.2397 33.883 67.5854 32.9573C67.931 32.0281 68.2266 31.2025 68.4801 30.4921C68.3966 30.3894 68.3233 30.2788 68.2612 30.1619C68.1886 30.01 68.1556 29.8423 68.1652 29.6742C68.1592 29.1464 68.3432 28.634 68.6836 28.2305C69.0292 27.8119 69.3171 27.6007 69.5475 27.6007C69.7165 27.6007 69.8202 27.7083 69.8624 27.9156C69.8932 28.0495 69.9138 28.1856 69.9238 28.3226C69.9143 28.5477 69.8553 28.768 69.7511 28.9677C69.6496 29.1576 69.5907 29.3672 69.5783 29.5821C69.5956 29.7327 69.649 29.877 69.7339 30.0026C69.8188 30.1283 69.9327 30.2316 70.0659 30.304L71.1833 31.1027C71.6112 31.42 71.9869 31.8022 72.2969 32.2354C72.6361 32.729 72.8071 33.3188 72.7845 33.9173C72.7814 34.5698 72.651 35.2154 72.4005 35.818C72.1356 36.4554 71.8745 37.0698 71.6326 37.6534C71.3977 38.1449 71.267 38.6796 71.2486 39.2239C71.231 39.3587 71.2475 39.4957 71.2964 39.6224C71.3454 39.7492 71.4253 39.8617 71.5289 39.9496C71.7258 40.0759 71.9555 40.1413 72.1893 40.1378C72.7342 40.1194 73.2643 39.9564 73.7253 39.6655C74.2817 39.3282 74.7971 38.9274 75.2612 38.4713C75.7538 37.998 76.206 37.4842 76.6128 36.9354C76.9675 36.4777 77.2629 35.9771 77.4921 35.4455L77.903 35.7565C77.4732 36.6882 76.9233 37.5596 76.2672 38.3484C75.6151 39.1637 74.8374 39.8701 73.9633 40.4411C73.1865 40.9609 72.2754 41.2437 71.3407 41.2552C70.7308 41.2919 70.1297 41.0956 69.6589 40.7061C69.4485 40.5121 69.2841 40.2734 69.1778 40.0077C69.0715 39.7419 69.026 39.4558 69.0445 39.1702C69.0588 38.5067 69.2091 37.8533 69.4861 37.2502C69.7779 36.5719 70.0659 35.8858 70.3501 35.1921C70.6105 34.5966 70.7539 33.9565 70.7724 33.3067C70.7931 33.0354 70.7516 32.763 70.6511 32.5102C70.5507 32.2573 70.3939 32.0307 70.1926 31.8476C69.815 31.5297 69.4216 31.2311 69.0138 30.9529C68.7578 31.7465 68.4596 32.6258 68.1191 33.5909C67.7777 34.5464 67.3457 35.467 66.8289 36.3402C66.3502 37.1698 65.7167 37.8998 64.9628 38.4905C64.2043 39.0655 63.2725 39.3649 62.321 39.3391C62.1746 39.3384 62.0283 39.3282 61.8832 39.3084L61.4109 39.247C60.8662 40.186 60.159 41.0207 59.3221 41.7121C58.5027 42.3835 57.4705 42.7402 56.4115 42.7182ZM57.1334 30.7148C57.7744 30.2013 58.3496 29.6106 58.8459 28.9562C59.4123 28.2311 59.9318 27.4706 60.4011 26.6792C60.8849 25.8728 61.3111 25.0818 61.6912 24.3062C62.0292 23.6244 62.323 22.9215 62.5706 22.2019C62.7426 21.7484 62.8486 21.2725 62.8854 20.7889C62.8927 20.7191 62.8807 20.6488 62.8509 20.5854C62.842 20.569 62.8286 20.5556 62.8122 20.5467C62.7958 20.5378 62.7772 20.5339 62.7587 20.5354C62.5897 20.5354 62.271 20.8349 61.7987 21.434C61.2211 22.1918 60.6963 22.9885 60.2283 23.8185C59.6523 24.8169 59.0814 25.9176 58.5157 27.1208C57.9665 28.2829 57.5044 29.4842 57.1334 30.7148ZM60.7774 38.2563C61.0119 37.7658 61.191 37.2506 61.3111 36.7203C61.4392 36.1806 61.5036 35.6278 61.5031 35.0731C61.5296 34.4822 61.4274 33.8926 61.2036 33.3451C61.0039 32.9266 60.7582 32.7154 60.4663 32.7154C60.1745 32.7154 59.8712 32.9304 59.6331 33.3605C59.3756 33.8593 59.2513 34.4161 59.2721 34.9771C59.2809 35.5892 59.3979 36.195 59.6177 36.7664C59.8277 37.3782 60.2358 37.9025 60.7774 38.2563Z" fill="#EDC454"/>
<path d="M79.0619 41.2398C78.7193 41.266 78.3754 41.2099 78.0588 41.0764C77.7422 40.9428 77.4621 40.7355 77.2418 40.4719C76.8349 39.935 76.6236 39.2752 76.6428 38.6019C76.6611 37.9855 76.7513 37.3734 76.9116 36.7779C77.1033 35.9972 77.3392 35.228 77.6181 34.474C77.9002 33.6902 78.2417 32.929 78.6395 32.197C78.9711 31.5619 79.3885 30.9753 79.8798 30.4537C80.038 30.2606 80.2333 30.1013 80.4543 29.9852C80.6753 29.8691 80.9174 29.7986 81.1661 29.7779C81.3443 29.774 81.5178 29.8355 81.6538 29.9507C81.7249 30.0159 81.7803 30.0965 81.8155 30.1863C81.8508 30.2762 81.8651 30.3729 81.8573 30.4691C81.7886 30.9082 81.6234 31.3265 81.3735 31.694C81.0458 32.2597 80.6618 32.9087 80.2215 33.6408C79.7777 34.3774 79.3926 35.1477 79.0696 35.9447C78.7617 36.6746 78.5962 37.4566 78.5819 38.2486C78.5819 39.0012 78.7099 39.5042 78.9659 39.7577C79.1232 39.8944 79.3059 39.9987 79.5036 40.0646C79.7012 40.1305 79.91 40.1567 80.1178 40.1416C80.8321 40.1416 81.5885 39.7845 82.3987 39.0742C83.2089 38.3638 84.0575 37.1159 84.956 35.3342L85.2402 35.649C84.7638 37.2462 83.8564 38.6811 82.6176 39.7961C81.6451 40.6902 80.3824 41.2029 79.0619 41.2398ZM82.8326 26.852C82.5166 26.8565 82.206 26.7699 81.9379 26.6024C81.8128 26.5187 81.7116 26.4039 81.6443 26.2692C81.577 26.1346 81.5458 25.9847 81.5539 25.8344C81.5686 25.5916 81.6474 25.3571 81.7823 25.1547C81.9173 24.9523 82.1034 24.7894 82.3219 24.6825C82.7766 24.3761 83.3097 24.2068 83.8578 24.1948C84.1318 24.1786 84.403 24.2572 84.6258 24.4175C84.7304 24.514 84.8106 24.634 84.86 24.7674C84.9094 24.9009 84.9265 25.0441 84.91 25.1855C84.8948 25.4134 84.8291 25.635 84.7175 25.8343C84.6059 26.0336 84.4513 26.2055 84.2649 26.3374C83.8676 26.6803 83.3573 26.8637 82.8326 26.852Z" fill="#EDC454"/>
</g>
<defs>
<clipPath id="clip0_714_31">
<rect width="86.02" height="43.4861" fill="white"/>
</clipPath>
</defs>
</svg>
